<?xml version="1.0" encoding="utf-8"?>
<!-- Generator: Adobe Illustrator 25.2.3, SVG Export Plug-In . SVG Version: 6.00 Build 0)  -->
<svg version="1.1" id="图层_1" xmlns="http://www.w3.org/2000/svg" xmlns:xlink="http://www.w3.org/1999/xlink" x="0px" y="0px"
	 viewBox="0 0 750 397" style="enable-background:new 0 0 750 397;" xml:space="preserve">
<style type="text/css">
	.st0{fill:url(#Background_1_);}
	.st1{opacity:0.2;}
	.st2{fill:url(#路径_409_1_);}
	.st3{fill:url(#路径_410_1_);}
	.st4{opacity:0.084;fill:url(#路径_396_1_);enable-background:new    ;}
</style>
<linearGradient id="Background_1_" gradientUnits="userSpaceOnUse" x1="1.0622" y1="395.7785" x2="2.0622" y2="396.7295" gradientTransform="matrix(750 0 0 -397 -795 157510)">
	<stop  offset="0" style="stop-color:#5C62E6"/>
	<stop  offset="1" style="stop-color:#AF7FF6"/>
</linearGradient>
<path id="Background" class="st0" d="M0-0.5h750v397H0V-0.5z"/>
<g id="组_1204" transform="translate(1335.682 -319.529)" class="st1">
	
		<linearGradient id="路径_409_1_" gradientUnits="userSpaceOnUse" x1="-1334.2941" y1="715.0933" x2="-1333.7401" y2="716.0504" gradientTransform="matrix(215.4962 0 0 -215.7875 286725.9375 154977.5312)">
		<stop  offset="0" style="stop-color:#FFFFFF;stop-opacity:0"/>
		<stop  offset="0.072" style="stop-color:#FFFFFF;stop-opacity:0.035"/>
		<stop  offset="1" style="stop-color:#FBFBFA"/>
	</linearGradient>
	<path id="路径_409" class="st2" d="M-641.91,526.28c-1.54-2.48-1.54-5.61,0-8.09l7.21-11.18c1.93-2.99,1.5-6.92-1.03-9.41
		l-7.5-7.36c-2.49-2.53-6.38-3.01-9.41-1.17l-11.18,7.06c-2.45,1.62-5.64,1.62-8.09,0c-9.87-6.44-20.84-11.03-32.36-13.53
		c-2.89-0.64-5.17-2.86-5.88-5.74l-2.8-12.94c-0.82-3.47-3.93-5.91-7.5-5.88h-11.03c-3.55-0.07-6.64,2.4-7.35,5.88l-2.94,12.8
		c-0.63,2.9-2.96,5.11-5.89,5.59c-11.52,2.49-22.52,6.97-32.51,13.24c-2.45,1.61-5.64,1.61-8.09,0l-11.18-7.06
		c-2.98-1.93-6.92-1.5-9.41,1.03l-7.35,7.35c-2.53,2.5-2.96,6.43-1.03,9.41l6.91,11.03c1.6,2.51,1.6,5.73,0,8.24
		c-6.25,9.92-10.69,20.88-13.09,32.36c-0.66,2.85-2.88,5.08-5.74,5.74l-12.94,2.94c-3.48,0.71-5.96,3.8-5.89,7.35v10.44
		c-0.08,3.59,2.38,6.73,5.89,7.5l12.8,2.79c2.87,0.66,5.07,2.98,5.59,5.88c2.43,11.57,6.97,22.59,13.39,32.51
		c1.54,2.48,1.54,5.61,0,8.09l-7.06,11.33c-1.93,2.98-1.5,6.92,1.03,9.41l7.35,7.35c2.5,2.53,6.43,2.96,9.41,1.03l11.03-7.06
		c2.53-1.54,5.71-1.54,8.24,0c6.73,4.43,14,7.99,21.62,10.59c-0.68-8.42,2.2-16.75,7.94-22.94c5.85-6.42,14.11-10.11,22.8-10.15
		h3.09l17.5,1.76l8.24-8.09l39.13-38.69l-1.03-17.5c-0.57-8.46,2.42-16.78,8.24-22.94c5.34-5.61,12.58-9.02,20.3-9.56
		C-634.85,538.88-638.01,532.36-641.91,526.28z M-729.57,612.62c-13.33,0-25.34-8.03-30.44-20.34c-5.1-12.31-2.28-26.48,7.14-35.91
		c9.42-9.42,23.59-12.24,35.91-7.14c12.31,5.1,20.34,17.11,20.34,30.44C-696.63,597.87-711.38,612.62-729.57,612.62
		C-729.57,612.62-729.57,612.62-729.57,612.62L-729.57,612.62z"/>
	
		<linearGradient id="路径_410_1_" gradientUnits="userSpaceOnUse" x1="-1334.4027" y1="715.4113" x2="-1333.4027" y2="715.4113" gradientTransform="matrix(161.1396 0 0 -159.45 214278.2812 114708.6406)">
		<stop  offset="0" style="stop-color:#FFFFFF;stop-opacity:0"/>
		<stop  offset="0.072" style="stop-color:#FFFFFF;stop-opacity:0.035"/>
		<stop  offset="1" style="stop-color:#FBFBFA"/>
	</linearGradient>
	<path id="路径_410" class="st3" d="M-585.72,599.97c0.34,5.42-1.58,10.75-5.29,14.71c-3.77,4.16-9.1,6.56-14.71,6.62h-2.06
		l-22.65-2.21l-8.68,8.53l-2.65,2.5l-37.65,37.07l-5.15,5.15l1.62,22.65c0.26,5.44-1.7,10.75-5.44,14.71
		c-3.84,4.02-9.15,6.3-14.71,6.33h-1.47l-10.89-1.03h-3.09c-0.46-0.2-0.86-0.5-1.18-0.88c-1.24-1.18-1.89-2.85-1.77-4.56
		c0.04-1.62,0.73-3.16,1.91-4.26l10.89-10.74c0.47-0.55,0.47-1.36,0-1.91l-3.82-3.82l-10.74-10.88h-1.91l-11.03,10.88
		c-1.16,1.1-2.67,1.78-4.27,1.91c-1.61,0.05-3.16-0.59-4.27-1.77c-0.52-0.58-0.97-1.22-1.33-1.91c-0.28-0.96-0.28-1.98,0-2.94
		l-0.73-7.06v-3.68c-0.34-5.42,1.58-10.75,5.3-14.71c3.71-4.23,9.07-6.65,14.7-6.62h2.06l22.65,2.21l9.27-9.12l2.65-2.65l42.8-42.07
		l-1.62-22.65c-0.24-5.48,1.75-10.83,5.52-14.82c3.77-3.99,8.99-6.29,14.48-6.36h0.44l10.88,1.03h3.09c0.43,0.3,0.82,0.65,1.17,1.03
		c2.03,1.99,2.34,5.15,0.74,7.5c-0.19,0.5-0.49,0.96-0.88,1.32l-10.89,10.74c0,0-0.74,1.33,0,1.77l12.21,12.5l2.35,2.35h0.74
		c0.33,0.11,0.7,0.11,1.03,0l11.18-10.88c1.16-1.28,2.83-1.98,4.56-1.91c1.61-0.05,3.17,0.59,4.27,1.77
		c0.52,0.58,0.97,1.22,1.32,1.91c0.29,0.96,0.29,1.98,0,2.94L-585.72,599.97z"/>
</g>
<linearGradient id="路径_396_1_" gradientUnits="userSpaceOnUse" x1="1.7893" y1="396.3604" x2="1.7893" y2="395.3604" gradientTransform="matrix(155.526 0 0 -154 -200.526 61039)">
	<stop  offset="0" style="stop-color:#FFFFFF;stop-opacity:0"/>
	<stop  offset="1" style="stop-color:#FFFFFF"/>
</linearGradient>
<path id="路径_396" class="st4" d="M1.53,93.5c-0.51,0-1.02-0.01-1.53-0.02v60c0.51,0.01,1.02,0.02,1.53,0.02
	c84.92,0,154-69.08,154-154h-60C95.47,51.39,53.42,93.44,1.53,93.5z"/>
</svg>
