<?xml version="1.0" encoding="utf-8"?>
<!-- Generator: Adobe Illustrator 25.2.3, SVG Export Plug-In . SVG Version: 6.00 Build 0)  -->
<svg version="1.1" id="图层_1" xmlns="http://www.w3.org/2000/svg" xmlns:xlink="http://www.w3.org/1999/xlink" x="0px" y="0px"
	 viewBox="0 0 92 92" style="enable-background:new 0 0 92 92;" xml:space="preserve">
<style type="text/css">
	.st0{opacity:0;fill:#062EEC;}
	.st1{fill:url(#SVGID_1_);}
	.st2{fill:url(#SVGID_2_);}
	.st3{fill:url(#SVGID_3_);}
	.st4{fill:url(#SVGID_4_);}
	.st5{fill:url(#SVGID_5_);}
	.st6{fill:url(#SVGID_6_);}
	.st7{fill:url(#SVGID_7_);}
	.st8{fill:url(#SVGID_8_);}
	.st9{fill:url(#SVGID_9_);}
	.st10{fill:url(#SVGID_10_);}
	.st11{fill:url(#SVGID_11_);}
	.st12{fill:url(#SVGID_12_);}
	.st13{fill:url(#SVGID_13_);}
	.st14{opacity:0.75;fill:#FFFFFF;enable-background:new    ;}
</style>
<rect class="st0" width="92" height="92"/>
<g>
	<linearGradient id="SVGID_1_" gradientUnits="userSpaceOnUse" x1="55.9304" y1="34.9101" x2="61.7383" y2="34.9101">
		<stop  offset="0" style="stop-color:#FF816C"/>
		<stop  offset="1" style="stop-color:#FFAC9F"/>
	</linearGradient>
	<path class="st1" d="M58.6,37.9l3.1-3.1c-1.1-0.7-2.1-1.6-2.7-2.8L55.9,35C56.9,35.9,57.8,36.8,58.6,37.9z"/>
	<linearGradient id="SVGID_2_" gradientUnits="userSpaceOnUse" x1="31.1107" y1="35.3161" x2="37.072" y2="35.3161">
		<stop  offset="0" style="stop-color:#99E3A7"/>
		<stop  offset="1" style="stop-color:#07C0B1"/>
	</linearGradient>
	<path class="st2" d="M37.1,35l-2.5-2.5c-0.9,1.2-2,2.2-3.4,2.7l3,3C34.9,37,35.9,35.9,37.1,35z"/>
	<linearGradient id="SVGID_3_" gradientUnits="userSpaceOnUse" x1="31.4092" y1="58.7016" x2="37.2346" y2="58.7016">
		<stop  offset="0" style="stop-color:#FF9CC5"/>
		<stop  offset="1" style="stop-color:#EC478B"/>
	</linearGradient>
	<path class="st3" d="M34.6,55.9l-3.2,2.9c1.2,0.6,2.1,1.6,2.8,2.7l3-3C36.3,57.7,35.4,56.9,34.6,55.9z"/>
	<linearGradient id="SVGID_4_" gradientUnits="userSpaceOnUse" x1="55.0248" y1="59.3744" x2="60.9509" y2="59.3744">
		<stop  offset="0" style="stop-color:#99E3A7"/>
		<stop  offset="1" style="stop-color:#07C0B1"/>
	</linearGradient>
	<path class="st4" d="M55,59l3.4,3.4c0.6-1.2,1.5-2.2,2.5-3l-3-3C57.1,57.4,56.1,58.2,55,59z"/>
	<linearGradient id="SVGID_5_" gradientUnits="userSpaceOnUse" x1="58.006" y1="28.187" x2="73.2259" y2="28.187">
		<stop  offset="0" style="stop-color:#FF816C"/>
		<stop  offset="1" style="stop-color:#FFAC9F"/>
	</linearGradient>
	<path class="st5" d="M65.6,20.6c-4.2,0-7.6,3.4-7.6,7.6c0,1.4,0.4,2.7,1,3.8c0.7,1.1,1.6,2.1,2.7,2.8c1.1,0.7,2.5,1.1,3.9,1.1
		c4.2,0,7.6-3.4,7.6-7.6S69.8,20.6,65.6,20.6z"/>
	<linearGradient id="SVGID_6_" gradientUnits="userSpaceOnUse" x1="57.6627" y1="65.6745" x2="72.8826" y2="65.6745">
		<stop  offset="0" style="stop-color:#99E3A7"/>
		<stop  offset="1" style="stop-color:#07C0B1"/>
	</linearGradient>
	<path class="st6" d="M65.3,58.1c-1.6,0-3.1,0.5-4.3,1.3c-1.1,0.7-2,1.8-2.5,3c-0.5,1-0.8,2.1-0.8,3.3c0,4.2,3.4,7.6,7.6,7.6
		c4.2,0,7.6-3.4,7.6-7.6S69.5,58.1,65.3,58.1z"/>
	<linearGradient id="SVGID_7_" gradientUnits="userSpaceOnUse" x1="20.1219" y1="65.4853" x2="35.3419" y2="65.4853">
		<stop  offset="0" style="stop-color:#FF9CC5"/>
		<stop  offset="1" style="stop-color:#EC478B"/>
	</linearGradient>
	<path class="st7" d="M34.2,61.5c-0.7-1.1-1.7-2-2.8-2.7c-1.1-0.6-2.3-0.9-3.7-0.9c-4.2,0-7.6,3.4-7.6,7.6s3.4,7.6,7.6,7.6
		s7.6-3.4,7.6-7.6C35.3,64,34.9,62.7,34.2,61.5z"/>
	<g>
		<linearGradient id="SVGID_8_" gradientUnits="userSpaceOnUse" x1="7.1429" y1="47.0032" x2="31.7496" y2="47.0032">
			<stop  offset="2.000000e-03" style="stop-color:#5C62DE"/>
			<stop  offset="0.999" style="stop-color:#A77FEE"/>
		</linearGradient>
		<path class="st8" d="M31.6,44.4h-9.7c-1.1-2.9-3.9-5-7.2-5c-3.6,0-6.7,2.5-7.4,5.9c-0.1,0.5-0.2,1.1-0.2,1.7s0.1,1.1,0.2,1.7
			c0.8,3.4,3.8,5.9,7.4,5.9c3.8,0,6.9-2.7,7.5-6.3h9.3c-0.1-0.5-0.1-1.1-0.1-1.6c0-1,0.1-2,0.3-2.9C31.7,44,31.7,44.2,31.6,44.4z"/>
		<linearGradient id="SVGID_9_" gradientUnits="userSpaceOnUse" x1="39.455" y1="19.4127" x2="54.6749" y2="19.4127">
			<stop  offset="2.000000e-03" style="stop-color:#5C62DE"/>
			<stop  offset="0.999" style="stop-color:#A77FEE"/>
		</linearGradient>
		<path class="st9" d="M49,7.2c-0.6-0.2-1.3-0.3-2-0.3s-1.3,0.1-2,0.3c-3.2,0.9-5.6,3.8-5.6,7.4c0,3.5,2.3,6.4,5.5,7.3v9.9
			c0.5-0.1,1-0.1,1.6-0.1c0.8,0,1.6,0.1,2.3,0.2V22c3.4-0.8,5.9-3.8,5.9-7.4C54.7,11.1,52.3,8.1,49,7.2z"/>
		<linearGradient id="SVGID_10_" gradientUnits="userSpaceOnUse" x1="61.2966" y1="47.1789" x2="84.8571" y2="47.1789">
			<stop  offset="2.000000e-03" style="stop-color:#5C62DE"/>
			<stop  offset="0.999" style="stop-color:#A77FEE"/>
		</linearGradient>
		<path class="st10" d="M84.8,46.1c-0.2-3.7-3.2-6.5-7.1-6.5c-0.3,0-0.7,0-1,0.1c-3,0.2-5.5,2.1-6.5,4.8h-8.9
			c0.1,0.7,0.2,1.5,0.2,2.3c0,0.5,0,1.1-0.1,1.6h8.3c0.5,3.7,3.7,6.5,7.5,6.5c4.2,0,7.6-3.4,7.6-7.6C84.9,46.8,84.8,46.4,84.8,46.1z
			"/>
		<linearGradient id="SVGID_11_" gradientUnits="userSpaceOnUse" x1="38.8704" y1="73.2705" x2="54.0903" y2="73.2705">
			<stop  offset="2.000000e-03" style="stop-color:#5C62DE"/>
			<stop  offset="0.999" style="stop-color:#A77FEE"/>
		</linearGradient>
		<path class="st11" d="M48.1,70v-8.4c-0.6,0.1-1.1,0.1-1.7,0.1c-0.8,0-1.5-0.1-2.2-0.2v8.6c-3.1,1-5.4,3.8-5.4,7.3
			c0,3.6,2.5,6.7,5.9,7.4c0.5,0.1,1.1,0.2,1.7,0.2c0.6,0,1.1-0.1,1.7-0.2c3.4-0.8,5.9-3.8,5.9-7.4C54.1,73.8,51.5,70.8,48.1,70z"/>
	</g>
	<linearGradient id="SVGID_12_" gradientUnits="userSpaceOnUse" x1="20.2804" y1="28.0924" x2="35.9368" y2="28.0924">
		<stop  offset="0" style="stop-color:#99E3A7"/>
		<stop  offset="1" style="stop-color:#07C0B1"/>
	</linearGradient>
	<path class="st12" d="M28.3,20.5c-2.5,0-4.7,1.2-6.1,3c-1.3,1.3-2,3-2,4.8c0,4.2,3.2,7.4,7.5,7.4c0,0,0,0,0.1,0c0.2,0,0.4,0,0.5,0
		c1,0,1.9-0.2,2.8-0.5c1.4-0.5,2.6-1.5,3.4-2.7c0.9-1.2,1.4-2.7,1.4-4.4C35.9,23.9,32.5,20.5,28.3,20.5z"/>
	<linearGradient id="SVGID_13_" gradientUnits="userSpaceOnUse" x1="31.4662" y1="46.6739" x2="61.4684" y2="46.6739">
		<stop  offset="2.000000e-03" style="stop-color:#5C62DE"/>
		<stop  offset="0.999" style="stop-color:#A77FEE"/>
	</linearGradient>
	<path class="st13" d="M61.3,44.4c-0.4-2.4-1.3-4.6-2.7-6.5c-0.8-1.1-1.7-2-2.7-2.8c-2-1.6-4.5-2.8-7.1-3.2
		c-0.8-0.1-1.5-0.2-2.3-0.2c-0.5,0-1,0-1.6,0.1c-2.9,0.3-5.6,1.5-7.8,3.2c-1.1,0.9-2.1,2-3,3.2c-1.1,1.7-2,3.6-2.4,5.6
		c-0.2,0.9-0.3,1.9-0.3,2.9c0,0.5,0,1.1,0.1,1.6c0.3,2.9,1.4,5.5,3.1,7.6c0.8,1,1.6,1.8,2.6,2.6c2,1.6,4.4,2.6,7,3
		c0.7,0.1,1.5,0.2,2.2,0.2c0.6,0,1.1,0,1.7-0.1c2.5-0.3,4.9-1.2,6.9-2.6c1.1-0.7,2-1.6,2.9-2.6c1.9-2.2,3.2-5,3.5-8.1
		c0.1-0.5,0.1-1.1,0.1-1.6C61.5,45.9,61.4,45.1,61.3,44.4z"/>
	<path class="st14" d="M52.6,45.7c-0.2-1-0.5-1.9-1.1-2.7c-0.3-0.4-0.7-0.8-1.1-1.2c-0.8-0.7-1.8-1.1-2.9-1.3c-0.3,0-0.6-0.1-1-0.1
		c-0.2,0-0.4,0-0.6,0c-1.2,0.1-2.3,0.6-3.2,1.3c-0.5,0.4-0.9,0.8-1.2,1.3c-0.5,0.7-0.8,1.5-1,2.3c-0.1,0.4-0.1,0.8-0.1,1.2
		c0,0.2,0,0.4,0,0.7c0.1,1.2,0.6,2.3,1.3,3.1c0.3,0.4,0.7,0.8,1.1,1.1c0.8,0.6,1.8,1.1,2.9,1.2c0.3,0,0.6,0.1,0.9,0.1
		c0.2,0,0.5,0,0.7,0c1-0.1,2-0.5,2.8-1.1c0.4-0.3,0.8-0.7,1.2-1.1c0.8-0.9,1.3-2.1,1.4-3.3c0-0.2,0-0.4,0-0.7
		C52.6,46.4,52.6,46,52.6,45.7z"/>
</g>
</svg>
