<?xml version="1.0" encoding="utf-8"?>
<!-- Generator: Adobe Illustrator 25.2.3, SVG Export Plug-In . SVG Version: 6.00 Build 0)  -->
<svg version="1.1" id="图层_1" xmlns="http://www.w3.org/2000/svg" xmlns:xlink="http://www.w3.org/1999/xlink" x="0px" y="0px"
	 viewBox="0 0 92 92" style="enable-background:new 0 0 92 92;" xml:space="preserve">
<style type="text/css">
	.st0{opacity:0;fill:#D63A3A;}
	.st1{fill:url(#路径_455_1_);}
	.st2{fill:url(#路径_456_1_);}
	.st3{fill:url(#路径_457_1_);}
</style>
<rect y="0" class="st0" width="92" height="92"/>
<g id="组_1234">
	<g id="组_1233" transform="translate(453.571 144.318)">
		
			<linearGradient id="路径_455_1_" gradientUnits="userSpaceOnUse" x1="-776.1652" y1="48.9297" x2="-776.2971" y2="50.0367" gradientTransform="matrix(78.0154 0 0 -66.03 60153.9883 3173.8245)">
			<stop  offset="0" style="stop-color:#5C62E6"/>
			<stop  offset="1" style="stop-color:#AF7FF6"/>
		</linearGradient>
		<path id="路径_455" class="st1" d="M-372.5-120.3h-69.4c-2.4,0-4.4,2-4.3,4.4l0,0c0,2.4,1.9,4.4,4.3,4.4h17.3
			c2.4,0,4.4,2,4.3,4.4c0,0,0,0,0,0v48.4c0,2.4,1.9,4.4,4.3,4.4l0,0c2.4,0,4.4-2,4.3-4.4v-17.6c0-2.4,1.9-4.4,4.3-4.4
			c2.4,0,4.4,2,4.3,4.4v17.6c0,2.4,1.9,4.4,4.3,4.4l0,0c2.4,0,4.4-2,4.3-4.4v-48.4c0-2.4,1.9-4.4,4.3-4.4h17.3c2.4,0,4.4-2,4.3-4.4
			l0,0C-368.1-118.3-370-120.3-372.5-120.3z"/>
		
			<linearGradient id="路径_456_1_" gradientUnits="userSpaceOnUse" x1="-759.4188" y1="38.4855" x2="-759.5508" y2="39.5925" gradientTransform="matrix(17.3375 0 0 -17.6 12760.2295 551.9921)">
			<stop  offset="0" style="stop-color:#5C62E6"/>
			<stop  offset="1" style="stop-color:#AF7FF6"/>
		</linearGradient>
		<path id="路径_456" class="st2" d="M-407.1-124.7c4.8,0,8.7-4,8.7-8.8c0-4.8-3.8-8.8-8.7-8.8c-4.8,0-8.7,4-8.7,8.8
			C-415.8-128.7-412-124.8-407.1-124.7z"/>
	</g>
	
		<linearGradient id="路径_457_1_" gradientUnits="userSpaceOnUse" x1="-323.7332" y1="189.8246" x2="-322.8512" y2="189.1606" gradientTransform="matrix(89.19 0 0 -30.9359 28881.3047 5911.7739)">
		<stop  offset="0" style="stop-color:#FFA2CB"/>
		<stop  offset="1" style="stop-color:#F24791"/>
	</linearGradient>
	<path id="路径_457" class="st3" d="M83.4,37.5c-1.6-1-3.7-0.5-4.8,1.1c-1,1.6-0.6,3.7,0.9,4.8c2.7,1.8,4.1,3.6,4.1,5.2l0,0.2
		l0,0.3c-0.3,1.7-2,3.5-4.8,5.2C76,55.8,73.1,57,70,57.7l0,0.1l-0.7,0.2c-7.6,2-15.4,3-23.3,2.9l-1.3,0c-7.4,0-14.8-1-22-2.9
		l-0.7-0.2v-0.1C19,57,16,55.8,13.3,54.2c-3.1-1.8-4.8-3.8-4.8-5.7c0-1.4,1.1-3,3.3-4.6c1-0.7,1.6-2,1.5-3.2
		c-0.1-1.3-0.9-2.4-2.1-2.9c-1.2-0.5-2.5-0.3-3.5,0.5c-4,2.9-6.1,6.4-6.1,10.2c0,6.2,5.7,11.4,15.5,15c0.3,0.2,0.7,0.3,1.1,0.4
		c7.7,2.6,17.5,4.1,28,4.1s20.3-1.4,28.1-4.1c0.4-0.1,0.7-0.2,1.1-0.4c9.7-3.5,15.4-8.8,15.4-14.9C90.6,44.3,88.1,40.5,83.4,37.5z"
		/>
</g>
</svg>
