<?xml version="1.0" encoding="utf-8"?>
<!-- Generator: Adobe Illustrator 25.2.3, SVG Export Plug-In . SVG Version: 6.00 Build 0)  -->
<svg version="1.1" id="图层_1" xmlns="http://www.w3.org/2000/svg" xmlns:xlink="http://www.w3.org/1999/xlink" x="0px" y="0px"
	 viewBox="0 0 92 92" style="enable-background:new 0 0 92 92;" xml:space="preserve">
<style type="text/css">
	.st0{opacity:0;fill:#062EEC;}
	.st1{fill:url(#SVGID_1_);}
	.st2{fill:#0F30CC;}
	.st3{opacity:0.3;fill:#FFFFFF;enable-background:new    ;}
	.st4{fill:url(#椭圆_176_1_);}
	.st5{fill:url(#SVGID_2_);}
	.st6{fill:url(#SVGID_3_);}
	.st7{fill:#FFFFFF;}
</style>
<rect class="st0" width="92" height="92"/>
<g>
	
		<linearGradient id="SVGID_1_" gradientUnits="userSpaceOnUse" x1="-807.6152" y1="823.9673" x2="-808.2437" y2="823.3019" gradientTransform="matrix(68.99 0 0 82.55 55778.7852 -67941.4531)">
		<stop  offset="0" style="stop-color:#5C62E0"/>
		<stop  offset="1" style="stop-color:#A97FF0"/>
	</linearGradient>
	<path class="st1" d="M65.2,15.6h-3.4v2.3c0,5.7-4.6,10.3-10.3,10.3H28c-5.7,0-10.3-4.6-10.3-10.3v-2.3h-3c-4,0-7.3,3.3-7.3,7.3
		v53.9c0,4,3.2,7.3,7.3,7.3h50.6c4,0,7.3-3.2,7.2-7.3V22.9C72.5,18.9,69.2,15.6,65.2,15.6z"/>
	<circle id="椭圆_180_1_" class="st2" cx="59.1" cy="62.2" r="4.2"/>
	<path id="路径_459_1_" class="st3" d="M61,63.6h-3.9c-1.5,0-2.7-1.2-2.7-2.7l0,0V57c0-1.5,1.2-2.7,2.7-2.8l0,0H61
		c1.5,0,2.7,1.2,2.7,2.7l0,0v3.9C63.9,62.3,62.5,63.6,61,63.6L61,63.6z"/>
	<path class="st3" d="M39.1,43.3H19.8c-1.8,0-3.3-1.5-3.3-3.3v0c0-1.8,1.5-3.3,3.3-3.3h19.2c1.8,0,3.3,1.5,3.3,3.3v0
		C42.4,41.8,40.9,43.3,39.1,43.3z"/>
	<path class="st3" d="M53.7,58.7H19.8c-1.8,0-3.3-1.5-3.3-3.3v0c0-1.8,1.5-3.3,3.3-3.3h33.8c1.8,0,3.3,1.5,3.3,3.3v0
		C57,57.2,55.5,58.7,53.7,58.7z"/>
	<path class="st3" d="M53.7,74H19.8c-1.8,0-3.3-1.5-3.3-3.3v0c0-1.8,1.5-3.3,3.3-3.3h33.8c1.8,0,3.3,1.5,3.3,3.3v0
		C57,72.6,55.5,74,53.7,74z"/>
	
		<linearGradient id="椭圆_176_1_" gradientUnits="userSpaceOnUse" x1="-798.8514" y1="839.0021" x2="-798.8514" y2="838.2695" gradientTransform="matrix(40 0 0 40 32020 -33476.5)">
		<stop  offset="0" style="stop-color:#FF816C"/>
		<stop  offset="1" style="stop-color:#FFAC9F"/>
	</linearGradient>
	<circle id="椭圆_176_2_" class="st4" cx="65.9" cy="64.7" r="18.9"/>
	<linearGradient id="SVGID_2_" gradientUnits="userSpaceOnUse" x1="23.3494" y1="15.6121" x2="56.1335" y2="15.6121">
		<stop  offset="0" style="stop-color:#99E3A7"/>
		<stop  offset="1" style="stop-color:#07C0B1"/>
	</linearGradient>
	<path class="st5" d="M51.5,8.6H28c-2.6,0-4.7,2.1-4.7,4.7v2.3v2.3c0,2.6,2.1,4.7,4.7,4.7h23.5c2.6,0,4.7-2.1,4.7-4.7v-2.3v-2.3
		C56.1,10.7,54,8.6,51.5,8.6z"/>
	<linearGradient id="SVGID_3_" gradientUnits="userSpaceOnUse" x1="58.1721" y1="64.7015" x2="84.8226" y2="64.7015">
		<stop  offset="0" style="stop-color:#FF816C"/>
		<stop  offset="1" style="stop-color:#FFAC9F"/>
	</linearGradient>
	<path class="st6" d="M80.6,72.8c-0.1,0-0.2,0-0.2-0.1c-0.7-0.5-1.4-0.9-2-1.4c-0.4,0.2-0.8,0.3-1.2,0.5c-0.2,0.1-0.4,0.1-0.6-0.1
		c0,0,0,0,0,0c-1.5-0.8-2.9-1.5-3.9-2.9c-1.1-1.5-1.7-3.1-1.4-5c0-0.1,0-0.1,0.1-0.2c0.1-0.3,0.4-0.5,0.7-0.3l10.4,6.9
		c0,0,0,0,0.1,0c0.4,0.3,0.9,0.6,1.3,0.9c0.7-2,1.1-4.2,1.1-6.5c0-10.4-8.5-18.9-18.9-18.9c-1.9,0-3.8,0.3-5.5,0.8
		c0.6,2.8,1.6,5.5,2.9,8c0.7,1.4,1.6,2.7,2.5,4c0.7,1,1.3,2.1,1.6,3.3c1.1,0.2,1.8,1.6,1.6,2.8c-0.2,1.2-1.3,2-2.5,1.7
		c-1.4,1.4-3.2,2.3-5.2,2.5c-0.6,0-1.2,0-1.9-0.1c0,0.1,0,0.1,0,0.2c-0.8,2.2-1,4.7-1.2,7.1c-0.2,2-0.1,4.1,0.5,6.1
		c2.2,0.9,4.6,1.4,7.2,1.4c7.4,0,13.9-4.3,16.9-10.5C82.1,73.2,81.2,73.1,80.6,72.8z"/>
	<path class="st7" d="M67.5,62c-0.2-1.2-0.9-2.3-1.6-3.3c-0.9-1.3-1.8-2.6-2.5-4c-1.3-2.5-2.3-5.2-2.9-8c-0.4,0.1-0.8,0.3-1.2,0.4
		c0,0,0,0,0-0.1c-7.1,2.7-12.1,9.6-12.1,17.6c0,7.3,4.1,13.6,10.2,16.8c0,0,0,0,0,0.1c0.5,0.3,1,0.5,1.5,0.7c-0.6-2-0.7-4-0.5-6.1
		c0.2-2.3,0.4-4.9,1.2-7.1c0-0.1,0-0.1,0-0.2c0.6,0.1,1.2,0.1,1.9,0.1c2-0.1,3.8-1,5.2-2.5c1.1,0.3,2.2-0.5,2.5-1.7
		C69.2,63.6,68.6,62.2,67.5,62z M58.2,68.7c-0.5,1.2-0.6,2.4-0.8,3.7c-0.2,1.3-0.4,2.7-0.5,4c0,0.4,0,0.8,0,1.3c0-0.4,0-0.9,0-1.3
		c0.1-1.3,0.3-2.7,0.5-4C57.6,71.1,57.7,69.9,58.2,68.7c0-0.1,0-0.1,0-0.1c0,0,0,0,0,0C58.2,68.7,58.2,68.7,58.2,68.7z M67.7,64.6
		c-0.1,0.5-0.6,0.8-1,0.6c-0.3-0.2-0.7,0-0.8,0.2c0,0,0,0-0.1,0.1c-1.3,1.4-3,2.3-5,2.3c-2,0-4-0.8-5.9-1.5
		c-0.5-0.2-0.8,0.2-0.8,0.6c0-0.4,0.3-0.8,0.8-0.7c1.9,0.7,3.8,1.5,5.9,1.5c2,0,3.7-0.8,5-2.3c0,0,0,0,0.1-0.1
		c0.2-0.2,0.5-0.4,0.8-0.2C67.1,65.4,67.6,65,67.7,64.6c0-0.1,0-0.2,0-0.3C67.7,64.5,67.7,64.6,67.7,64.6z"/>
	<path class="st7" d="M86.7,73.2C86.7,73.2,86.7,73.2,86.7,73.2c-0.2-0.1-0.3-0.2-0.4-0.3c-0.5-0.4-1.1-0.7-1.6-1.1c0,0,0,0-0.1,0
		l-12.2-8.1c-0.4-0.2-0.7,0-0.8,0.3c0,0.1-0.1,0.1-0.1,0.2c-0.3,2.2,0.4,4.1,1.7,5.9c1.2,1.7,2.7,2.6,4.5,3.5c0,0,0,0,0,0
		c0.2,0.2,0.4,0.2,0.7,0.1c0.5-0.2,0.9-0.4,1.4-0.5c0.8,0.5,1.6,1.1,2.4,1.6c0.1,0.1,0.2,0.1,0.3,0.1c0.7,0.4,1.8,0.5,2.7,0.3
		c0.7-0.2,1.3-0.5,1.6-1.1C87.2,73.7,87,73.3,86.7,73.2z"/>
</g>
</svg>
