<?xml version="1.0" encoding="utf-8"?>
<!-- Generator: Adobe Illustrator 25.2.3, SVG Export Plug-In . SVG Version: 6.00 Build 0)  -->
<svg version="1.1" id="图层_1" xmlns="http://www.w3.org/2000/svg" xmlns:xlink="http://www.w3.org/1999/xlink" x="0px" y="0px"
	 viewBox="0 0 92 92" style="enable-background:new 0 0 92 92;" xml:space="preserve">
<style type="text/css">
	.st0{opacity:0;fill:#D3D3D3;fill-opacity:0;}
	.st1{fill:url(#路径_438_1_);}
	.st2{opacity:0.3;fill:#FFFFFF;enable-background:new    ;}
	.st3{opacity:0.75;fill:#FFFFFF;enable-background:new    ;}
	.st4{fill:url(#椭圆_178_1_);}
	.st5{fill:#FFFFFF;}
</style>
<rect id="矩形_504" class="st0" width="92" height="92"/>
<path id="路径_437" d="M54.2,12.5"/>
<linearGradient id="路径_438_1_" gradientUnits="userSpaceOnUse" x1="-320.0415" y1="193.793" x2="-320.8575" y2="194.6021" gradientTransform="matrix(53.019 0 0 -75.6921 17025.2363 14744.5312)">
	<stop  offset="0" style="stop-color:#5C62E6"/>
	<stop  offset="1" style="stop-color:#AF7FF6"/>
</linearGradient>
<path id="路径_438" class="st1" d="M62,13.4c0-1.4-0.6-2.8-1.6-3.8c-1-1-2.4-1.6-3.8-1.6H14.4c-1.4,0-2.8,0.6-3.8,1.6
	c-1,1-1.6,2.4-1.6,3.8V28h8c0,3-1.2,5.8-3.3,7.8c-3,2.9-4.7,6.9-4.7,11v30.6c0,1.6,0.7,3.2,1.8,4.4c1.2,1.2,2.7,1.8,4.4,1.8h40.6
	c1.6,0,3.2-0.7,4.4-1.8c1.2-1.2,1.8-2.7,1.8-4.4V46.9c0-4.2-1.7-8.1-4.7-11c-2-2-3.2-4.7-3.3-7.5l0-0.3h8V13.4z"/>
<rect id="矩形_505" x="30.6" y="49.6" class="st2" width="26.5" height="6.5"/>
<path id="路径_439" class="st3" d="M56.6,12.4H14.4c-0.5,0-1,0.4-1,1l0,0v10.2H17v0H54v0h3.6V13.4C57.6,12.9,57.2,12.4,56.6,12.4
	L56.6,12.4z"/>
<rect id="矩形_505_1_" x="30.6" y="59.1" class="st2" width="26.5" height="6.5"/>
<rect id="矩形_505_2_" x="30.6" y="68.6" class="st2" width="26.5" height="6.5"/>
<linearGradient id="椭圆_178_1_" gradientUnits="userSpaceOnUse" x1="-317.6635" y1="190.8181" x2="-318.1515" y2="191.33" gradientTransform="matrix(39 0 0 -39 12461.8447 7516.4893)">
	<stop  offset="0" style="stop-color:#FF876C"/>
	<stop  offset="1" style="stop-color:#FFB2A5"/>
</linearGradient>
<circle id="椭圆_178" class="st4" cx="63.3" cy="64.5" r="19.5"/>
<g id="组_1225" transform="translate(596.668 4.71)">
	<g id="组_1224">
		<path id="路径_440" class="st5" d="M-524.3,50.2l1.5,1.5c0.1,0.1,0.1,0.1,0.1,0.2c0,0.1,0,0.2-0.1,0.2L-542,69.9
			c-0.1,0.1-0.3,0.1-0.4,0l-1.5-1.5c-0.1-0.1-0.1-0.1-0.1-0.2c0-0.1,0-0.2,0.1-0.2l0,0l19.2-17.8C-524.6,50.1-524.4,50.1-524.3,50.2
			L-524.3,50.2z M-522.6,66.7c0.2,0,0.3,0.1,0.3,0.3v2.3c0,0.2-0.1,0.3-0.3,0.3h-9.6c-0.2,0-0.3-0.1-0.3-0.3V67
			c0-0.2,0.1-0.3,0.3-0.3H-522.6z M-538.6,49.3c0.2,0,0.3,0.1,0.3,0.3v3.3h3.3c0.2,0,0.3,0.1,0.3,0.3v2.3c0,0.1,0,0.2-0.1,0.2
			c-0.1,0.1-0.1,0.1-0.2,0.1h-3.3v3.3c0,0.2-0.1,0.3-0.3,0.3l0,0h-2.3c-0.1,0-0.2,0-0.2-0.1c-0.1-0.1-0.1-0.1-0.1-0.2v-3.3h-3.3
			c-0.1,0-0.2,0-0.2-0.1c-0.1-0.1-0.1-0.1-0.1-0.2v-2.3c0-0.2,0.1-0.3,0.3-0.3h3.3v-3.3c0-0.2,0.1-0.3,0.3-0.3H-538.6z"/>
	</g>
</g>
</svg>
