<?xml version="1.0" encoding="utf-8"?>
<!-- Generator: Adobe Illustrator 25.2.3, SVG Export Plug-In . SVG Version: 6.00 Build 0)  -->
<svg version="1.1" id="图层_1" xmlns="http://www.w3.org/2000/svg" xmlns:xlink="http://www.w3.org/1999/xlink" x="0px" y="0px"
	 viewBox="0 0 92 92" style="enable-background:new 0 0 92 92;" xml:space="preserve">
<style type="text/css">
	.st0{opacity:0;}
	.st1{fill:#0F30D2;}
	.st2{opacity:0.3;fill:#FFFFFF;enable-background:new    ;}
	.st3{fill:url(#路径_461_1_);}
	.st4{opacity:0.75;fill:#FFFFFF;enable-background:new    ;}
	.st5{fill:url(#椭圆_182_1_);}
	.st6{fill:#FFFFFF;}
</style>
<rect id="矩形_511" class="st0" width="92" height="92"/>
<circle id="椭圆_181" class="st1" cx="59.8" cy="64.4" r="4.5"/>
<path id="路径_460" class="st2" d="M61.8,65.8h-4.1c-1.6,0-2.9-1.3-2.9-2.9c0,0,0,0,0,0v-4.1c0-1.6,1.3-2.9,2.9-3c0,0,0,0,0,0h4.1
	c1.6,0,2.9,1.3,2.9,2.9c0,0,0,0,0,0v4.1C64.8,64.5,63.4,65.8,61.8,65.8C61.8,65.8,61.8,65.8,61.8,65.8z"/>
<linearGradient id="路径_461_1_" gradientUnits="userSpaceOnUse" x1="-321.7261" y1="194.0919" x2="-322.4391" y2="194.8469" gradientTransform="matrix(68.99 0 0 -82.55 22259.7168 16099.3975)">
	<stop  offset="0" style="stop-color:#5C62E6"/>
	<stop  offset="1" style="stop-color:#AF7FF6"/>
</linearGradient>
<path id="路径_461" class="st3" d="M66.3,87.5H12.7c-4.3,0-7.7-3.5-7.7-7.7V12.7C5,8.5,8.5,5,12.7,5h53.5c4.3,0,7.7,3.5,7.7,7.7
	v67.1C74,84.1,70.5,87.5,66.3,87.5C66.3,87.5,66.3,87.5,66.3,87.5z"/>
<rect id="矩形_512" x="14.4" y="13.9" class="st4" width="50.3" height="17.7"/>
<path id="路径_462" class="st2" d="M22.3,51h-4.1c-1.6,0-2.9-1.3-2.9-2.9c0,0,0,0,0,0v-4.1c0-1.6,1.3-2.9,2.9-3c0,0,0,0,0,0h4.1
	c1.6,0,2.9,1.3,2.9,2.9c0,0,0,0,0,0V48C25.3,49.7,24,51,22.3,51C22.3,51,22.3,51,22.3,51z"/>
<path id="路径_463" class="st2" d="M41.5,51h-4.1c-1.6,0-2.9-1.3-2.9-2.9c0,0,0,0,0,0v-4.1c0-1.6,1.3-2.9,2.9-3c0,0,0,0,0,0h4.1
	c1.6,0,2.9,1.3,2.9,2.9c0,0,0,0,0,0V48C44.5,49.7,43.2,51,41.5,51C41.5,51,41.5,51,41.5,51z"/>
<path id="路径_464" class="st2" d="M61.6,51h-4.1c-1.6,0-2.9-1.3-2.9-2.9c0,0,0,0,0,0v-4.1c0-1.6,1.3-2.9,2.9-3c0,0,0,0,0,0h4.1
	c1.6,0,2.9,1.3,2.9,2.9c0,0,0,0,0,0V48C64.6,49.7,63.3,51,61.6,51C61.6,51,61.6,51,61.6,51z"/>
<path id="路径_465" class="st2" d="M22.3,69h-4.1c-1.6,0-2.9-1.3-2.9-2.9c0,0,0,0,0,0v-4.1c0-1.6,1.3-2.9,2.9-3c0,0,0,0,0,0h4.1
	c1.6,0,2.9,1.3,2.9,2.9c0,0,0,0,0,0V66C25.3,67.7,24,69,22.3,69C22.3,69,22.3,69,22.3,69z"/>
<path id="路径_466" class="st2" d="M41.5,69h-4.1c-1.6,0-2.9-1.3-2.9-2.9c0,0,0,0,0,0v-4.1c0-1.6,1.3-2.9,2.9-3c0,0,0,0,0,0h4.1
	c1.6,0,2.9,1.3,2.9,2.9c0,0,0,0,0,0V66C44.5,67.7,43.2,69,41.5,69C41.5,69,41.5,69,41.5,69z"/>
<linearGradient id="椭圆_182_1_" gradientUnits="userSpaceOnUse" x1="-318.15" y1="191.7375" x2="-318.15" y2="190.7375" gradientTransform="matrix(40 0 0 -40 12793 7716.5)">
	<stop  offset="0" style="stop-color:#FFA2CB"/>
	<stop  offset="1" style="stop-color:#F24791"/>
</linearGradient>
<circle id="椭圆_182" class="st5" cx="67" cy="67" r="20"/>
<g id="组_1239" transform="translate(-351.622 -546.124)">
	<path id="路径_373" class="st6" d="M409.8,616.3v1c0,0.5-0.1,0.9-0.3,1.4c-0.2,0.4-0.4,0.8-0.7,1.1c-0.3,0.3-0.7,0.6-1.1,0.8
		c-0.4,0.2-0.9,0.3-1.4,0.3c-0.4,0-0.9-0.1-1.3-0.2c-0.4-0.1-0.8-0.3-1.2-0.6c-0.4-0.3-0.7-0.7-0.9-1.1c-0.2-0.5-0.4-1.1-0.3-1.7
		v-8.5c0-0.5,0.1-1,0.3-1.4c0.2-0.4,0.4-0.8,0.7-1.1c0.3-0.3,0.7-0.6,1.1-0.7c0.5-0.2,1-0.3,1.5-0.3c1,0,1.9,0.3,2.5,1
		c0.3,0.3,0.6,0.7,0.7,1.2c0.2,0.5,0.3,1,0.3,1.5v0.9h-2.2v-0.7c0-0.4-0.1-0.8-0.4-1.1c-0.2-0.3-0.6-0.5-1-0.5
		c-0.4-0.1-0.9,0.1-1.1,0.5c-0.2,0.4-0.3,0.8-0.3,1.3v7.9c0,0.4,0.1,0.8,0.3,1.1c0.2,0.3,0.6,0.5,1.1,0.5c0.2,0,0.3,0,0.5-0.1
		c0.2-0.1,0.3-0.1,0.5-0.2c0.1-0.1,0.3-0.3,0.3-0.5c0.1-0.2,0.1-0.5,0.1-0.8v-0.8L409.8,616.3z"/>
	<path id="路径_374" class="st6" d="M413,620.7v-13.3h-2.6v-2.1h7.3v2.1h-2.6v13.3H413z"/>
	<path id="路径_375" class="st6" d="M425.9,609.7h-2.2v-0.5c0-0.5-0.1-0.9-0.4-1.3c-0.3-0.4-0.7-0.6-1.2-0.6c-0.3,0-0.5,0-0.7,0.2
		c-0.2,0.1-0.3,0.3-0.5,0.4c-0.1,0.2-0.2,0.4-0.2,0.6c0,0.2-0.1,0.5-0.1,0.7c0,0.3,0,0.5,0,0.8c0,0.2,0.1,0.4,0.2,0.5
		c0.1,0.2,0.2,0.3,0.4,0.4c0.2,0.1,0.4,0.3,0.7,0.3l1.7,0.7c0.4,0.2,0.8,0.4,1.2,0.7c0.3,0.2,0.5,0.5,0.7,0.9
		c0.2,0.4,0.3,0.8,0.3,1.2c0.1,0.5,0.1,1,0.1,1.5c0,0.6-0.1,1.2-0.2,1.8c-0.1,0.5-0.3,1-0.6,1.4c-0.3,0.4-0.7,0.7-1.2,1
		c-0.6,0.2-1.2,0.4-1.8,0.3c-0.5,0-1-0.1-1.5-0.3c-0.4-0.2-0.9-0.4-1.2-0.8c-0.3-0.3-0.6-0.7-0.8-1.2c-0.2-0.5-0.3-0.9-0.3-1.4v-0.8
		h2.2v0.7c0,0.4,0.1,0.8,0.4,1.1c0.3,0.3,0.7,0.5,1.2,0.5c0.3,0,0.6,0,0.9-0.2c0.2-0.1,0.4-0.3,0.5-0.5c0.1-0.2,0.2-0.5,0.2-0.7
		c0-0.3,0-0.6,0-0.9c0-0.3,0-0.7,0-1c0-0.2-0.1-0.4-0.2-0.6c-0.1-0.2-0.2-0.3-0.4-0.4c-0.2-0.1-0.4-0.2-0.7-0.3l-1.6-0.6
		c-0.8-0.3-1.5-0.8-1.9-1.5c-0.3-0.8-0.5-1.6-0.5-2.4c0-0.6,0.1-1.1,0.2-1.6c0.1-0.5,0.4-0.9,0.7-1.3c0.3-0.4,0.7-0.7,1.2-0.9
		c0.5-0.2,1.1-0.4,1.7-0.3c0.5,0,1,0.1,1.5,0.3c0.4,0.2,0.8,0.5,1.2,0.8c0.6,0.6,1,1.5,1,2.4L425.9,609.7z"/>
	<path id="路径_376" class="st6" d="M433.8,605.3v2.1h-4.4v4.2c0.2-0.2,0.5-0.4,0.8-0.5c0.3-0.1,0.7-0.2,1.1-0.2
		c0.7,0,1.3,0.2,1.8,0.7c0.5,0.6,0.8,1.3,0.7,2v4c0,0.5-0.1,0.9-0.3,1.4c-0.2,0.4-0.4,0.7-0.7,1c-0.3,0.3-0.7,0.5-1.1,0.7
		c-0.8,0.3-1.7,0.3-2.5,0c-0.4-0.1-0.7-0.4-1-0.7c-0.3-0.3-0.6-0.6-0.7-1c-0.2-0.4-0.3-0.9-0.3-1.4v-0.7h2.2v0.6
		c0,0.3,0.1,0.6,0.3,0.9c0.2,0.2,0.5,0.3,0.8,0.3c0.3,0,0.6-0.1,0.8-0.3c0.2-0.2,0.3-0.5,0.3-0.8v-3.6c0-0.3-0.1-0.6-0.3-0.8
		c-0.2-0.2-0.5-0.3-0.7-0.3c-0.2,0-0.3,0-0.5,0.1c-0.1,0.1-0.2,0.1-0.3,0.2c-0.1,0.1-0.1,0.2-0.2,0.3c-0.1,0.1-0.1,0.2-0.1,0.2h-1.9
		v-8.3L433.8,605.3z"/>
</g>
</svg>
