<?xml version="1.0" encoding="utf-8"?>
<!-- Generator: Adobe Illustrator 25.2.3, SVG Export Plug-In . SVG Version: 6.00 Build 0)  -->
<svg version="1.1" id="图层_1" xmlns="http://www.w3.org/2000/svg" xmlns:xlink="http://www.w3.org/1999/xlink" x="0px" y="0px"
	 viewBox="0 0 92 92" style="enable-background:new 0 0 92 92;" xml:space="preserve">
<style type="text/css">
	.st0{opacity:0;fill:#D3D3D3;enable-background:new    ;}
	.st1{fill:url(#路径_480_1_);}
	.st2{opacity:0.3;fill:#FFFFFF;enable-background:new    ;}
	.st3{opacity:0.75;fill:#FFFFFF;enable-background:new    ;}
	.st4{fill:url(#椭圆_186_1_);}
</style>
<rect id="矩形_515" class="st0" width="92" height="92"/>
<g>
	
		<linearGradient id="路径_480_1_" gradientUnits="userSpaceOnUse" x1="-322.8965" y1="193.9071" x2="-322.8965" y2="194.9071" gradientTransform="matrix(81.1109 0 0 -81.0243 26236.4355 15797.6963)">
		<stop  offset="0" style="stop-color:#5C62E6"/>
		<stop  offset="1" style="stop-color:#AF7FF6"/>
	</linearGradient>
	<path id="路径_480" class="st1" d="M80.9,37.5c-1.1-4.4-3.1-8.6-5.7-12.3c0.5-1,0.7-2,0.7-3.1c0-3.9-3.2-7.1-7.1-7.2h0
		c-1.2,0-2.4,0.3-3.5,0.9c-3.6-2.3-7.6-3.9-11.8-4.8c-0.8-3.9-4.6-6.3-8.5-5.5c-2.7,0.6-4.8,2.7-5.5,5.4c-4.7,0.9-9.1,2.7-13.1,5.3
		c-3.2-2.3-7.7-1.6-10,1.6c-0.9,1.2-1.4,2.7-1.4,4.2c0,1.5,0.5,2.9,1.3,4.1c-2.3,3.4-4,7.2-5,11.3c-3.9,0.7-6.5,4.3-5.8,8.2
		c0.5,2.7,2.5,5,5.2,5.7c0.7,4.6,2.3,9,4.6,13c-2.4,3.1-1.8,7.6,1.3,10c2.4,1.8,5.6,2,8.1,0.4c4.4,3.2,9.4,5.4,14.8,6.4
		c1.1,3.8,5,6,8.8,4.9c2.4-0.7,4.3-2.6,5-5c4.8-1,9.4-3,13.5-5.8c0.9,0.4,1.8,0.6,2.8,0.6c3.9,0,7.1-3.2,7.1-7.2c0-1-0.2-2.1-0.7-3
		c2.9-4.4,4.7-9.3,5.5-14.4c3.8-1.2,5.8-5.2,4.6-9C85.4,39.9,83.4,38.1,80.9,37.5L80.9,37.5z"/>
	<path id="路径_481" class="st2" d="M58.6,20.6c1-0.5,2.1-0.5,3.1-0.1c1.4,0.7,2.3,2.1,2.5,3.6c0,0.8-0.2,1.5-0.7,2.1
		c-0.6,0.8-1.6,1.3-2.7,1.3c-0.2,0-0.4,0-0.6-0.1c-1.7-0.4-3-1.7-3.3-3.4C56.5,22.6,57.3,21.2,58.6,20.6z"/>
	<path id="路径_482" class="st2" d="M27.1,55.3c-0.8,1-1.9,1.6-3.2,1.6c-0.3,0-0.5,0-0.8-0.1c-2-0.5-3.5-2-3.9-4
		c-0.4-1.7,0.5-3.4,2-4.2c1.1-0.6,2.5-0.6,3.7-0.1c1.7,0.8,2.8,2.4,2.9,4.3C27.9,53.7,27.7,54.6,27.1,55.3L27.1,55.3z"/>
	<path id="路径_483" class="st3" d="M30.9,40.5c-1.6-1.7-2.3-4.2-1.8-6.5c0.5-2.5,1.7-4.7,3.5-6.5c2.1-2.2,4.9-3.5,8-3.6
		c1.9-0.1,3.7,0.7,5,2c1.6,1.7,2.3,4.2,1.8,6.5c-0.5,2.5-1.7,4.7-3.5,6.5c-2.1,2.2-5,3.5-8,3.6C34.1,42.5,32.3,41.8,30.9,40.5
		L30.9,40.5z"/>
	<path id="路径_484" class="st2" d="M50.6,67.3c-1,2.8-3.9,4.5-7.6,4.5c-1.5,0-3-0.3-4.4-0.8c-2.2-0.8-4.2-2.3-5.6-4.2
		c-1.4-1.8-1.8-4.3-1-6.5c1-2.8,4-4.5,7.6-4.5c1.5,0,2.9,0.3,4.3,0.8c2.2,0.8,4.2,2.3,5.6,4.2C51,62.7,51.4,65.1,50.6,67.3
		L50.6,67.3z"/>
	<path id="路径_485" class="st3" d="M72,51.8c-0.2,3.1-1.8,6-4.4,7.7c-1.5,0.9-3.2,1.4-4.9,1.4c-4.3,0-8.6-2.7-11.3-7
		c-1.8-2.8-2.6-6.1-2.4-9.4c0.2-3.1,1.8-6,4.4-7.7l0,0c1.5-0.9,3.2-1.4,4.9-1.4c4.3,0,8.6,2.7,11.3,6.9C71.4,45.2,72.2,48.5,72,51.8
		z"/>
	
		<linearGradient id="椭圆_186_1_" gradientUnits="userSpaceOnUse" x1="-308.6732" y1="184.5289" x2="-307.6732" y2="184.5289" gradientTransform="matrix(19.32 0 0 -19.32 5973.0801 3582.97)">
		<stop  offset="0" style="stop-color:#FF876C"/>
		<stop  offset="1" style="stop-color:#FFB2A5"/>
	</linearGradient>
	<circle id="椭圆_186" class="st4" cx="19.2" cy="17.9" r="9.7"/>
</g>
</svg>
