<svg xml:space="preserve" style="enable-background:new 0 0 92 92;" viewBox="0 0 92 92" y="0px" x="0px" xmlns:xlink="http://www.w3.org/1999/xlink" xmlns="http://www.w3.org/2000/svg" id="图层_1" version="1.1">
<style type="text/css">
	.st0{opacity:0;fill:#062EE9;}
	.st1{fill:url(#SVGID_1_);}
	.st2{fill:url(#SVGID_2_);}
	.st3{fill:url(#SVGID_3_);}
	.st4{fill:#FFFFFF;}
	.st5{fill:url(#SVGID_4_);}
	.st6{fill:url(#SVGID_5_);}
	.st7{fill:url(#SVGID_6_);}
	.st8{opacity:0.3;fill:#FFFFFF;enable-background:new    ;}
</style>
<rect height="92" width="92" class="st0"></rect>
<g>
	<linearGradient y2="30.5993" x2="78.6687" y1="30.5993" x1="75.818" gradientUnits="userSpaceOnUse" id="SVGID_1_">
		<stop style="stop-color:#5C62DB" offset="2.000000e-03"></stop>
		<stop style="stop-color:#A47FEB" offset="0.999"></stop>
	</linearGradient>
	<circle r="1.4" cy="30.6" cx="77.2" class="st1"></circle>
	<linearGradient y2="46" x2="77.1325" y1="46" x1="14.8675" gradientUnits="userSpaceOnUse" id="SVGID_2_">
		<stop style="stop-color:#5C62DD" offset="0"></stop>
		<stop style="stop-color:#A67FED" offset="1"></stop>
	</linearGradient>
	<circle r="31.1" cy="46" cx="46" class="st2"></circle>
	<g>
		<linearGradient y2="46" x2="84.5564" y1="46" x1="7.4436" gradientUnits="userSpaceOnUse" id="SVGID_3_">
			<stop style="stop-color:#5C62DD" offset="0"></stop>
			<stop style="stop-color:#A67FED" offset="1"></stop>
		</linearGradient>
		<path d="M46.7,84.6c-0.8,0-1.5-0.7-1.5-1.5c0-0.8,0.6-1.5,1.5-1.5c0.3,0,0.6,0,1,0c0.9,0,1.5,0.6,1.6,1.4
			c0,0.8-0.6,1.5-1.4,1.6C47.5,84.6,47.1,84.6,46.7,84.6C46.8,84.6,46.8,84.6,46.7,84.6z M40.7,84.2c-0.1,0-0.1,0-0.2,0
			c-0.3,0-0.7-0.1-1-0.2c-0.8-0.1-1.4-0.9-1.2-1.7c0.1-0.8,0.9-1.4,1.7-1.2c0.3,0.1,0.6,0.1,1,0.1c0.8,0.1,1.4,0.9,1.3,1.7
			C42.1,83.7,41.5,84.2,40.7,84.2z M53.7,83.8c-0.7,0-1.3-0.5-1.5-1.2c-0.2-0.8,0.3-1.6,1.2-1.8c0.3-0.1,0.6-0.1,0.9-0.2
			c0.8-0.2,1.6,0.3,1.8,1.1c0.2,0.8-0.3,1.6-1.1,1.8c-0.3,0.1-0.7,0.2-1,0.2C54,83.8,53.9,83.8,53.7,83.8z M33.9,82.6
			c-0.2,0-0.3,0-0.5-0.1c-0.3-0.1-0.7-0.2-1-0.4c-0.8-0.3-1.2-1.2-0.9-1.9c0.3-0.8,1.2-1.2,1.9-0.9c0.3,0.1,0.6,0.2,0.9,0.3
			c0.8,0.3,1.2,1.1,0.9,1.9C35.1,82.2,34.5,82.6,33.9,82.6z M60.5,81.6c-0.6,0-1.1-0.3-1.4-0.9c-0.3-0.8,0-1.6,0.8-2
			c0.3-0.1,0.6-0.3,0.9-0.4c0.8-0.3,1.6,0,2,0.7c0.3,0.8,0,1.6-0.7,2c-0.3,0.1-0.6,0.3-1,0.4C60.9,81.6,60.7,81.6,60.5,81.6z
			 M27.4,79.6c-0.3,0-0.5-0.1-0.7-0.2c-0.3-0.2-0.6-0.4-0.9-0.5c-0.7-0.4-0.9-1.4-0.5-2.1c0.4-0.7,1.4-0.9,2.1-0.5
			c0.3,0.2,0.6,0.3,0.8,0.5c0.7,0.4,1,1.3,0.5,2C28.5,79.4,28,79.6,27.4,79.6z M66.7,78.3c-0.5,0-1-0.2-1.2-0.7
			c-0.5-0.7-0.3-1.6,0.4-2.1c0.3-0.2,0.5-0.4,0.8-0.6c0.7-0.5,1.6-0.3,2.1,0.3s0.3,1.6-0.3,2.1c-0.3,0.2-0.6,0.4-0.9,0.6
			C67.2,78.2,67,78.3,66.7,78.3z M21.7,75.6c-0.3,0-0.7-0.1-1-0.4c-0.3-0.2-0.5-0.5-0.8-0.7c-0.6-0.6-0.7-1.5-0.1-2.1
			c0.6-0.6,1.5-0.7,2.1-0.1c0.2,0.2,0.5,0.4,0.7,0.6c0.6,0.5,0.7,1.5,0.2,2.1C22.5,75.4,22.1,75.6,21.7,75.6z M72.1,73.8
			c-0.4,0-0.8-0.1-1.1-0.4c-0.6-0.6-0.6-1.5,0-2.1c0.2-0.2,0.5-0.5,0.7-0.7c0.6-0.6,1.5-0.6,2.1-0.1c0.6,0.6,0.6,1.5,0.1,2.1
			c-0.2,0.3-0.5,0.5-0.7,0.7C72.9,73.7,72.5,73.8,72.1,73.8z M16.8,70.5c-0.4,0-0.9-0.2-1.2-0.6c-0.2-0.3-0.4-0.5-0.6-0.8
			c-0.5-0.7-0.4-1.6,0.3-2.1c0.7-0.5,1.6-0.4,2.1,0.3c0.2,0.3,0.4,0.5,0.6,0.8c0.5,0.7,0.4,1.6-0.2,2.1
			C17.5,70.4,17.1,70.5,16.8,70.5z M76.6,68.4c-0.3,0-0.6-0.1-0.8-0.3c-0.7-0.5-0.9-1.4-0.4-2.1c0.2-0.3,0.4-0.5,0.5-0.8
			c0.4-0.7,1.4-0.9,2.1-0.5c0.7,0.4,0.9,1.4,0.5,2.1c-0.2,0.3-0.4,0.6-0.6,0.9C77.6,68.2,77.1,68.4,76.6,68.4z M13,64.5
			c-0.5,0-1.1-0.3-1.3-0.8c-0.2-0.3-0.3-0.6-0.5-0.9c-0.4-0.7-0.1-1.6,0.7-2c0.7-0.4,1.6-0.1,2,0.7c0.1,0.3,0.3,0.6,0.4,0.9
			c0.4,0.7,0.1,1.6-0.6,2C13.5,64.5,13.2,64.5,13,64.5z M80,62.2c-0.2,0-0.4,0-0.6-0.1c-0.8-0.3-1.1-1.2-0.8-2
			c0.1-0.3,0.3-0.6,0.4-0.9c0.3-0.8,1.2-1.1,2-0.8c0.8,0.3,1.1,1.2,0.8,2c-0.1,0.3-0.3,0.6-0.4,1C81.2,61.9,80.6,62.2,80,62.2z
			 M10.4,58c-0.6,0-1.2-0.4-1.4-1.1c-0.1-0.3-0.2-0.7-0.3-1c-0.2-0.8,0.3-1.6,1.1-1.8c0.8-0.2,1.6,0.3,1.8,1.1
			c0.1,0.3,0.2,0.6,0.3,0.9c0.2,0.8-0.2,1.6-1,1.9C10.7,58,10.5,58,10.4,58z M82.2,55.5c-0.1,0-0.2,0-0.3,0c-0.8-0.2-1.3-1-1.1-1.8
			c0.1-0.3,0.1-0.6,0.2-0.9c0.2-0.8,0.9-1.3,1.8-1.2c0.8,0.2,1.3,0.9,1.2,1.8c-0.1,0.3-0.1,0.7-0.2,1C83.5,55,82.9,55.5,82.2,55.5z
			 M9,51.1c-0.8,0-1.4-0.6-1.5-1.4c0-0.3-0.1-0.7-0.1-1c-0.1-0.8,0.6-1.5,1.4-1.6c0.8-0.1,1.5,0.6,1.6,1.4c0,0.3,0,0.6,0.1,1
			c0.1,0.8-0.5,1.6-1.3,1.6C9.1,51.1,9.1,51.1,9,51.1z M83,48.5C83,48.5,83,48.5,83,48.5c-0.9,0-1.5-0.7-1.5-1.5c0-0.3,0-0.6,0-1
			l0-0.2c0-0.8,0.7-1.5,1.5-1.5s1.5,0.7,1.5,1.5l0,0.1c0,0.4,0,0.7,0,1.1C84.5,47.9,83.9,48.5,83,48.5z M9,44c0,0-0.1,0-0.1,0
			c-0.8-0.1-1.4-0.8-1.4-1.6c0-0.3,0.1-0.7,0.1-1c0.1-0.8,0.8-1.4,1.7-1.3c0.8,0.1,1.4,0.8,1.3,1.7c0,0.3-0.1,0.6-0.1,1
			C10.4,43.5,9.8,44,9,44z M82.5,41.3c-0.7,0-1.4-0.5-1.5-1.3c-0.1-0.3-0.1-0.6-0.2-1c-0.2-0.8,0.4-1.6,1.2-1.8
			c0.8-0.2,1.6,0.4,1.8,1.2c0.1,0.3,0.1,0.7,0.2,1c0.1,0.8-0.4,1.6-1.2,1.7C82.7,41.3,82.6,41.3,82.5,41.3z M10.3,37.1
			c-0.1,0-0.3,0-0.4-0.1c-0.8-0.2-1.3-1.1-1-1.9c0.1-0.3,0.2-0.7,0.3-1c0.3-0.8,1.1-1.2,1.9-1c0.8,0.3,1.2,1.1,1,1.9
			c-0.1,0.3-0.2,0.6-0.3,0.9C11.6,36.7,11,37.1,10.3,37.1z M80.7,34.5c-0.6,0-1.2-0.4-1.4-1c-0.1-0.3-0.2-0.6-0.4-0.9
			c-0.3-0.8,0.1-1.6,0.8-2c0.8-0.3,1.6,0.1,2,0.8c0.1,0.3,0.3,0.6,0.4,1c0.3,0.8-0.1,1.6-0.9,1.9C81.1,34.5,80.9,34.5,80.7,34.5z
			 M12.9,30.6c-0.2,0-0.5-0.1-0.7-0.2c-0.7-0.4-1-1.3-0.6-2c0.2-0.3,0.3-0.6,0.5-0.9c0.4-0.7,1.3-1,2-0.6c0.7,0.4,1,1.3,0.6,2
			c-0.2,0.3-0.3,0.6-0.5,0.9C14,30.3,13.5,30.6,12.9,30.6z M77.6,28.2c-0.5,0-1-0.3-1.3-0.7c-0.2-0.3-0.3-0.5-0.5-0.8
			c-0.5-0.7-0.3-1.6,0.4-2.1c0.7-0.5,1.6-0.3,2.1,0.4c0.2,0.3,0.4,0.6,0.6,0.9c0.4,0.7,0.2,1.6-0.5,2.1
			C78.2,28.1,77.9,28.2,77.6,28.2z M16.7,24.6c-0.3,0-0.6-0.1-0.9-0.3c-0.7-0.5-0.8-1.5-0.3-2.1c0.2-0.3,0.4-0.5,0.7-0.8
			c0.5-0.6,1.5-0.7,2.1-0.2c0.6,0.5,0.7,1.5,0.2,2.1c-0.2,0.2-0.4,0.5-0.6,0.8C17.6,24.4,17.2,24.6,16.7,24.6z M73.4,22.5
			c-0.4,0-0.8-0.2-1.1-0.5c-0.2-0.2-0.4-0.5-0.7-0.7c-0.6-0.6-0.6-1.5,0-2.1c0.6-0.6,1.5-0.6,2.1,0c0.2,0.3,0.5,0.5,0.7,0.8
			c0.6,0.6,0.5,1.6-0.1,2.1C74.1,22.4,73.8,22.5,73.4,22.5z M21.6,19.5c-0.4,0-0.8-0.2-1.1-0.5c-0.5-0.6-0.5-1.6,0.1-2.1
			c0.3-0.2,0.5-0.5,0.8-0.7c0.6-0.5,1.6-0.4,2.1,0.2C24,17,24,18,23.3,18.5c-0.2,0.2-0.5,0.4-0.7,0.6C22.3,19.4,21.9,19.5,21.6,19.5
			z M68.2,17.8c-0.3,0-0.6-0.1-0.9-0.3c-0.3-0.2-0.5-0.4-0.8-0.6c-0.7-0.5-0.8-1.4-0.4-2.1c0.5-0.7,1.4-0.8,2.1-0.4
			c0.3,0.2,0.6,0.4,0.8,0.6c0.7,0.5,0.8,1.4,0.3,2.1C69.1,17.6,68.6,17.8,68.2,17.8z M27.3,15.4c-0.5,0-1-0.3-1.3-0.7
			c-0.4-0.7-0.2-1.6,0.5-2.1c0.3-0.2,0.6-0.3,0.9-0.5c0.7-0.4,1.6-0.1,2,0.6c0.4,0.7,0.1,1.6-0.6,2c-0.3,0.2-0.6,0.3-0.8,0.5
			C27.8,15.3,27.6,15.4,27.3,15.4z M62.2,14.1c-0.2,0-0.4,0-0.7-0.2c-0.3-0.1-0.6-0.3-0.9-0.4c-0.8-0.3-1.1-1.2-0.7-2s1.2-1.1,2-0.7
			c0.3,0.1,0.6,0.3,1,0.4c0.7,0.4,1.1,1.3,0.7,2C63.3,13.8,62.7,14.1,62.2,14.1z M33.7,12.5c-0.6,0-1.2-0.4-1.4-1
			c-0.3-0.8,0.1-1.6,0.9-1.9c0.3-0.1,0.7-0.2,1-0.3c0.8-0.3,1.6,0.2,1.9,1c0.3,0.8-0.2,1.6-1,1.9c-0.3,0.1-0.6,0.2-0.9,0.3
			C34,12.4,33.9,12.5,33.7,12.5z M55.6,11.6c-0.1,0-0.3,0-0.4-0.1c-0.3-0.1-0.6-0.2-0.9-0.2c-0.8-0.2-1.3-1-1.1-1.8
			c0.2-0.8,1-1.3,1.8-1.1c0.3,0.1,0.7,0.2,1,0.3c0.8,0.2,1.3,1,1.1,1.8C56.8,11.2,56.2,11.6,55.6,11.6z M40.6,10.8
			c-0.7,0-1.4-0.5-1.5-1.3c-0.1-0.8,0.4-1.6,1.3-1.7c0.3-0.1,0.7-0.1,1-0.1C42.2,7.6,43,8.1,43.1,9c0.1,0.8-0.5,1.6-1.3,1.7
			c-0.3,0-0.6,0.1-1,0.1C40.7,10.8,40.6,10.8,40.6,10.8z M48.6,10.5c0,0-0.1,0-0.1,0c-0.3,0-0.6,0-1-0.1c-0.8,0-1.5-0.7-1.4-1.6
			c0-0.8,0.7-1.5,1.6-1.4c0.4,0,0.7,0,1.1,0.1c0.8,0.1,1.4,0.8,1.4,1.6C50.1,9.9,49.4,10.5,48.6,10.5z" class="st3"></path>
	</g>
	<path d="M64.6,33.6l-0.5-0.3l-3,1.7L47.4,43l-1.5,0.9L44.4,43l-13.7-7.9l-3-1.7l-0.5,0.3c-0.8,0.4-1.2,1.2-1.4,2.1
		l2.9,1.7l15.7,9v18.6v3.5l0.1,0c0.9,0.5,2,0.5,2.9,0l0.1,0v-3.5V46.4l15.7-9l2.9-1.7C65.9,34.8,65.4,34.1,64.6,33.6z" class="st4"></path>
	<linearGradient y2="52.1121" x2="66.0452" y1="52.1121" x1="47.3716" gradientUnits="userSpaceOnUse" id="SVGID_4_">
		<stop style="stop-color:#96E0A4" offset="0"></stop>
		<stop style="stop-color:#07BDAE" offset="1"></stop>
	</linearGradient>
	<path d="M66,35.7L63,37.4l-15.7,9v18.6v3.5l17.2-10c0.9-0.5,1.4-1.5,1.4-2.5v-20C66,36,66,35.8,66,35.7z" class="st5"></path>
	<linearGradient y2="52.1121" x2="44.3716" y1="52.1121" x1="25.6981" gradientUnits="userSpaceOnUse" id="SVGID_5_">
		<stop style="stop-color:#FF806C" offset="0"></stop>
		<stop style="stop-color:#FFA99C" offset="1"></stop>
	</linearGradient>
	<path d="M28.7,37.4l-2.9-1.7c0,0.1-0.1,0.3-0.1,0.4v20c0,1,0.5,2,1.4,2.5l17.2,10v-3.5V46.4L28.7,37.4z" class="st6"></path>
	<linearGradient y2="33.5474" x2="64.0809" y1="33.5474" x1="27.6624" gradientUnits="userSpaceOnUse" id="SVGID_6_">
		<stop style="stop-color:#FF99C2" offset="0"></stop>
		<stop style="stop-color:#E94788" offset="1"></stop>
	</linearGradient>
	<path d="M47.3,23.6c-0.9-0.5-2-0.5-2.9,0l-16.8,9.7l3,1.7L44.4,43l1.5,0.9l1.5-0.9l13.7-7.9l3-1.7L47.3,23.6z" class="st7"></path>
	<path d="M51.6,58.8l7.9-4.5c0.2-0.1,0.3-0.3,0.3-0.6v-8.9c0-0.5-0.5-0.8-1-0.6L51,48.8c-0.2,0.1-0.3,0.3-0.3,0.6v8.9
		C50.7,58.8,51.2,59.1,51.6,58.8z" class="st8"></path>
	<path d="M40.8,48.8l-7.9-4.4c-0.4-0.2-1,0.1-1,0.6v8.9c0,0.2,0.1,0.4,0.3,0.6l7.9,4.5c0.4,0.2,1-0.1,1-0.6v-8.9
		C41.1,49.1,41,48.9,40.8,48.8z" class="st8"></path>
	<path d="M44.8,29.9l-7.3,4.7c-0.4,0.3-0.4,0.9,0,1.1l8.1,4.2c0.2,0.1,0.4,0.1,0.6,0l7.1-4.2c0.4-0.2,0.4-0.9,0-1.1
		l-7.8-4.7C45.3,29.8,45,29.8,44.8,29.9z" class="st8"></path>
</g>
</svg>
