<svg xml:space="preserve" style="enable-background:new 0 0 92 92;" viewBox="0 0 92 92" y="0px" x="0px" xmlns:xlink="http://www.w3.org/1999/xlink" xmlns="http://www.w3.org/2000/svg" id="图层_1" version="1.1">
<style type="text/css">
	.st0{opacity:0;fill:#062EE9;}
	.st1{fill:url(#SVGID_1_);}
	.st2{fill:url(#SVGID_2_);}
	.st3{fill:url(#SVGID_3_);}
	.st4{fill:url(#SVGID_4_);}
	.st5{fill:url(#SVGID_5_);}
	.st6{opacity:0.75;fill:#FFFFFF;enable-background:new    ;}
	.st7{fill:url(#SVGID_6_);}
	.st8{fill:url(#SVGID_7_);}
	.st9{fill:url(#SVGID_8_);}
	.st10{fill:url(#SVGID_9_);}
	.st11{fill:url(#SVGID_10_);}
	.st12{fill:url(#SVGID_11_);}
	.st13{fill:url(#SVGID_12_);}
	.st14{fill:url(#SVGID_13_);}
	.st15{fill:url(#SVGID_14_);}
</style>
<rect height="92" width="92" class="st0"></rect>
<g>
	<linearGradient y2="86.3744" x2="62.967" y1="86.3744" x1="6.5612" gradientUnits="userSpaceOnUse" id="SVGID_1_">
		<stop style="stop-color:#5C62DB" offset="2.000000e-03"></stop>
		<stop style="stop-color:#A47FEB" offset="0.999"></stop>
	</linearGradient>
	<path d="M63,92v-3.6c-5.8,1.7-13.3,1.7-23.1-1.6l-17.6-6V92H63z" class="st1"></path>
	<linearGradient y2="87.9433" x2="64.6877" y1="87.9433" x1="22.266" gradientUnits="userSpaceOnUse" id="SVGID_2_">
		<stop style="stop-color:#5C62DB" offset="2.000000e-03"></stop>
		<stop style="stop-color:#A47FEB" offset="0.999"></stop>
	</linearGradient>
	<path d="M63,88.4c0.6-0.2,1.2-0.4,1.7-0.6L63,87.5V88.4z" class="st2"></path>
	<linearGradient y2="85.1265" x2="62.967" y1="85.1265" x1="6.5612" gradientUnits="userSpaceOnUse" id="SVGID_3_">
		<stop style="stop-color:#5C62DB" offset="2.000000e-03"></stop>
		<stop style="stop-color:#A47FEB" offset="0.999"></stop>
	</linearGradient>
	<path d="M39.9,86.8c9.7,3.3,17.2,3.4,23.1,1.6v-0.9l-40.7-6.8L39.9,86.8z" class="st3"></path>
	<linearGradient y2="85.1265" x2="64.6877" y1="85.1265" x1="22.266" gradientUnits="userSpaceOnUse" id="SVGID_4_">
		<stop style="stop-color:#5C62DB" offset="2.000000e-03"></stop>
		<stop style="stop-color:#A47FEB" offset="0.999"></stop>
	</linearGradient>
	<path d="M39.9,86.8c9.7,3.3,17.2,3.4,23.1,1.6v-0.9l-40.7-6.8L39.9,86.8z" class="st4"></path>
	<linearGradient y2="46" x2="113.2395" y1="46" x1="6.5613" gradientUnits="userSpaceOnUse" id="SVGID_5_">
		<stop style="stop-color:#5C62DB" offset="2.000000e-03"></stop>
		<stop style="stop-color:#A47FEB" offset="0.999"></stop>
	</linearGradient>
	<path d="M78.5,53.1L78.5,53.1c-3.3-4.1-8.3-10.6-14.2-18c-0.5-0.5-0.9-0.9-1.3-1.4c-11.6-12.3-16.9-23.1-19.1-29
		C42.8,1.9,40,0,37,0H22.3H9.2C7.7,0,6.6,1.2,6.6,2.6v87.3c0,1.1,0.9,2.1,2.1,2.1h13.6V80.7l17.6,6c9.7,3.3,17.2,3.4,23.1,1.6
		c0.6-0.2,1.2-0.4,1.7-0.6c9.3-3.5,13.8-11.9,16.1-18C72.1,62.1,78.5,53.1,78.5,53.1z" class="st5"></path>
	<path d="M75.1,52.4h-5.5c0,0,1.9,6.9-4.2,8.4c1,0.7,2,4,1.6,4.1c-0.4,0.1,9.9-0.6,9.9-0.6l3.5-2.9l1.5-4.1
		c-0.7,0-1-1.2-2.3-2.6c-0.5-0.5-0.8-1.7-1.5-1.9C77.1,52.5,76.1,52.4,75.1,52.4z" class="st6"></path>
	<linearGradient y2="61.4537" x2="85.4388" y1="61.4537" x1="76.2335" gradientUnits="userSpaceOnUse" id="SVGID_6_">
		<stop style="stop-color:#FF99C2" offset="0"></stop>
		<stop style="stop-color:#E94788" offset="1"></stop>
	</linearGradient>
	<path d="M82.9,57.8c-0.5-0.2-2.1-1.9-4.3-4.7h0c0,0-6.5,9,2.2,16.7c1.3-3.5,1.8-6.2,2.1-7.1C87.4,61,85,57.8,82.9,57.8
		z" class="st7"></path>
	<linearGradient y2="54.214" x2="53.3854" y1="54.214" x1="30.2879" gradientUnits="userSpaceOnUse" id="SVGID_7_">
		<stop style="stop-color:#96E0A4" offset="0"></stop>
		<stop style="stop-color:#07BDAE" offset="1"></stop>
	</linearGradient>
	<path d="M36,44.9c0,0-14.2,11.6,2.3,17.2S53.4,57,53.4,57L52,49.1l-12.2-4.3L36,44.9z" class="st8"></path>
	<linearGradient y2="65.2148" x2="59.3381" y1="65.2148" x1="34.7641" gradientUnits="userSpaceOnUse" id="SVGID_8_">
		<stop style="stop-color:#FF806C" offset="0"></stop>
		<stop style="stop-color:#FFA99C" offset="1"></stop>
	</linearGradient>
	<path d="M49.1,55.8c-0.3,0-24.6,5.1-9.3,15.8S50,66.7,50,66.7l9.4-4.8v-6.8L49.1,55.8z" class="st9"></path>
	<linearGradient y2="67.8138" x2="68.298" y1="67.8138" x1="39.815" gradientUnits="userSpaceOnUse" id="SVGID_9_">
		<stop style="stop-color:#FF99C2" offset="0"></stop>
		<stop style="stop-color:#E94788" offset="1"></stop>
	</linearGradient>
	<path d="M68.3,64.8c0,0-14.4,16.7-26.9,10.1c-0.8-0.4-1.4-1.2-1.5-2.1c-0.5-3.7,2-11.1,26-13.7
		C68.8,60.4,68.3,64.8,68.3,64.8z" class="st10"></path>
	<linearGradient y2="71.9162" x2="76.893" y1="71.9162" x1="52.6204" gradientUnits="userSpaceOnUse" id="SVGID_10_">
		<stop style="stop-color:#FF806C" offset="0"></stop>
		<stop style="stop-color:#FFA99C" offset="1"></stop>
	</linearGradient>
	<path d="M76.9,64.3c0.3-0.5-17.6-1.6-23.9,10.2c-1.2,2.3,0.3,5,2.8,5.3C61,80.2,69.8,78.3,76.9,64.3z" class="st11"></path>
	<linearGradient y2="41.3543" x2="57.9304" y1="41.3543" x1="33.1985" gradientUnits="userSpaceOnUse" id="SVGID_11_">
		<stop style="stop-color:#FF99C2" offset="0"></stop>
		<stop style="stop-color:#E94788" offset="1"></stop>
	</linearGradient>
	<path d="M38.5,33c0,0-17.9,8.2,12.3,16.7c5.1,0.9,7.2-4.7,7.2-4.7l-6.4-6.4L38.5,33z" class="st12"></path>
	<linearGradient y2="55.1258" x2="70.8827" y1="55.1258" x1="47.6575" gradientUnits="userSpaceOnUse" id="SVGID_12_">
		<stop style="stop-color:#96E0A4" offset="0"></stop>
		<stop style="stop-color:#07BDAE" offset="1"></stop>
	</linearGradient>
	<path d="M54.1,49.1c0,0-11.7,4.4-3.6,10.5c5.2,2.2,10.9,1.5,14.9,1.1c1-0.1,2-0.5,2.9-0.9c2.7-1.4,3.3-5.1,1.3-7.4v0
		l-8.4-2.3L54.1,49.1z" class="st13"></path>
	<linearGradient y2="37.5662" x2="57.9909" y1="37.5662" x1="34.5667" gradientUnits="userSpaceOnUse" id="SVGID_13_">
		<stop style="stop-color:#96E0A4" offset="0"></stop>
		<stop style="stop-color:#07BDAE" offset="1"></stop>
	</linearGradient>
	<path d="M50.5,35.6c0,0-4.5-11.4-13.4-6.5s8,18.3,15.8,18.1s4.3-3.2,4.3-3.2L50.5,35.6z" class="st14"></path>
	<linearGradient y2="44.5091" x2="69.6619" y1="44.5091" x1="50.5019" gradientUnits="userSpaceOnUse" id="SVGID_14_">
		<stop style="stop-color:#FF806C" offset="0"></stop>
		<stop style="stop-color:#FFA99C" offset="1"></stop>
	</linearGradient>
	<path d="M69.7,52.4L50.5,35.6C50.5,35.6,49.3,58.4,69.7,52.4z" class="st15"></path>
</g>
</svg>
