<?xml version="1.0" encoding="utf-8"?>
<!-- Generator: Adobe Illustrator 25.2.3, SVG Export Plug-In . SVG Version: 6.00 Build 0)  -->
<svg version="1.1" id="图层_1" xmlns="http://www.w3.org/2000/svg" xmlns:xlink="http://www.w3.org/1999/xlink" x="0px" y="0px"
	 viewBox="0 0 92 92" style="enable-background:new 0 0 92 92;" xml:space="preserve">
<style type="text/css">
	.st0{opacity:0;fill:#062EEC;}
	.st1{fill:none;stroke:url(#SVGID_1_);stroke-width:5;stroke-linecap:round;stroke-miterlimit:10;}
	.st2{fill:none;stroke:url(#SVGID_2_);stroke-width:5;stroke-linecap:round;stroke-miterlimit:10;}
	.st3{fill:none;stroke:url(#SVGID_3_);stroke-width:5;stroke-linecap:round;stroke-miterlimit:10;}
	.st4{fill:url(#SVGID_4_);}
	.st5{fill:url(#SVGID_5_);}
	.st6{fill:url(#SVGID_6_);}
	.st7{fill:url(#SVGID_7_);}
	.st8{opacity:0.75;fill:#FFFFFF;enable-background:new    ;}
	.st9{fill:url(#SVGID_8_);}
	.st10{fill:url(#SVGID_9_);}
	.st11{fill:url(#SVGID_10_);}
</style>
<rect class="st0" width="92" height="92"/>
<linearGradient id="SVGID_1_" gradientUnits="userSpaceOnUse" x1="29.4721" y1="44.1306" x2="18.6119" y2="32.6305">
	<stop  offset="0" style="stop-color:#5C62E0"/>
	<stop  offset="1" style="stop-color:#A97FF0"/>
</linearGradient>
<path class="st1" d="M32.8,24.4c0,0-17.2,7.4-16.7,28.9"/>
<linearGradient id="SVGID_2_" gradientUnits="userSpaceOnUse" x1="-1362.3038" y1="44.1306" x2="-1373.1641" y2="32.6305" gradientTransform="matrix(-1 0 0 1 -1300.5236 0)">
	<stop  offset="0" style="stop-color:#5C62E0"/>
	<stop  offset="1" style="stop-color:#A97FF0"/>
</linearGradient>
<path class="st2" d="M58.4,24.4c0,0,17.2,7.4,16.7,28.9"/>
<linearGradient id="SVGID_3_" gradientUnits="userSpaceOnUse" x1="-1449.1299" y1="-278.8081" x2="-1459.9901" y2="-290.3083" gradientTransform="matrix(-0.5 -0.866 0.866 -0.5 -435.7076 -1326.5972)">
	<stop  offset="0" style="stop-color:#5C62E0"/>
	<stop  offset="1" style="stop-color:#A97FF0"/>
</linearGradient>
<path class="st3" d="M28.6,74.7c0,0,15,11.2,33.4,0"/>
<linearGradient id="SVGID_4_" gradientUnits="userSpaceOnUse" x1="50.4058" y1="38.3387" x2="40.3811" y2="27.7233">
	<stop  offset="0" style="stop-color:#FF9CC5"/>
	<stop  offset="1" style="stop-color:#EC478B"/>
</linearGradient>
<path class="st4" d="M43.5,25.6v14.9c0,2.4,3.8,2.4,3.8,0V25.6C47.3,23.2,43.5,23.2,43.5,25.6z"/>
<linearGradient id="SVGID_5_" gradientUnits="userSpaceOnUse" x1="-726.6439" y1="323.2628" x2="-736.6686" y2="312.6475" gradientTransform="matrix(0.5 -0.866 0.866 0.5 152.4983 -731.8247)">
	<stop  offset="0" style="stop-color:#FF816C"/>
	<stop  offset="1" style="stop-color:#FFAC9F"/>
</linearGradient>
<path class="st5" d="M54.6,58.7l12.9,7.4c2.1,1.2,4-2.1,1.9-3.3l-12.9-7.4C54.4,54.2,52.5,57.5,54.6,58.7z"/>
<linearGradient id="SVGID_6_" gradientUnits="userSpaceOnUse" x1="-1329.8978" y1="-723.0923" x2="-1339.9225" y2="-733.7078" gradientTransform="matrix(-0.5 -0.866 -0.866 0.5 -1268.6838 -731.8247)">
	<stop  offset="0" style="stop-color:#99E3A7"/>
	<stop  offset="1" style="stop-color:#07C0B1"/>
</linearGradient>
<path class="st6" d="M37,58l-12.9,7.4c-2.1,1.2-4-2.1-1.9-3.3l12.9-7.4C37.2,53.5,39.1,56.7,37,58z"/>
<linearGradient id="SVGID_7_" gradientUnits="userSpaceOnUse" x1="52.3614" y1="58.2803" x2="37.3223" y2="42.3552">
	<stop  offset="0" style="stop-color:#5C62E0"/>
	<stop  offset="1" style="stop-color:#A97FF0"/>
</linearGradient>
<circle class="st7" cx="44.9" cy="50.4" r="14"/>
<circle class="st8" cx="44.9" cy="50.4" r="7"/>
<linearGradient id="SVGID_8_" gradientUnits="userSpaceOnUse" x1="50.275" y1="22.5395" x2="40.2619" y2="11.9365">
	<stop  offset="0" style="stop-color:#FF9CC5"/>
	<stop  offset="1" style="stop-color:#EC478B"/>
</linearGradient>
<circle class="st9" cx="45.3" cy="17.3" r="9.3"/>
<linearGradient id="SVGID_9_" gradientUnits="userSpaceOnUse" x1="21.0694" y1="72.5194" x2="11.0563" y2="61.9163">
	<stop  offset="0" style="stop-color:#99E3A7"/>
	<stop  offset="1" style="stop-color:#07C0B1"/>
</linearGradient>
<circle class="st10" cx="16.1" cy="67.3" r="9.3"/>
<linearGradient id="SVGID_10_" gradientUnits="userSpaceOnUse" x1="78.6791" y1="72.5194" x2="68.6661" y2="61.9163">
	<stop  offset="0" style="stop-color:#FF816C"/>
	<stop  offset="1" style="stop-color:#FFAC9F"/>
</linearGradient>
<circle class="st11" cx="73.7" cy="67.3" r="9.3"/>
</svg>
