<?xml version="1.0" encoding="utf-8"?>
<!-- Generator: Adobe Illustrator 25.2.3, SVG Export Plug-In . SVG Version: 6.00 Build 0)  -->
<svg version="1.1" id="图层_1" xmlns="http://www.w3.org/2000/svg" xmlns:xlink="http://www.w3.org/1999/xlink" x="0px" y="0px"
	 viewBox="0 0 92 92" style="enable-background:new 0 0 92 92;" xml:space="preserve">
<style type="text/css">
	.st0{fill:url(#SVGID_1_);}
	.st1{fill:url(#SVGID_2_);}
	.st2{fill:url(#SVGID_3_);}
	.st3{fill:url(#SVGID_4_);}
	.st4{fill:url(#SVGID_5_);}
	.st5{fill:url(#SVGID_6_);}
	.st6{opacity:0.75;fill:#FFFFFF;enable-background:new    ;}
	.st7{fill:url(#SVGID_7_);}
	.st8{fill:url(#SVGID_8_);}
	.st9{fill:url(#SVGID_9_);}
	.st10{fill:url(#SVGID_10_);}
	.st11{opacity:0.75;fill:#B4B4F3;enable-background:new    ;}
	.st12{fill:url(#SVGID_11_);}
</style>
<g>
	<linearGradient id="SVGID_1_" gradientUnits="userSpaceOnUse" x1="62.3418" y1="26.4913" x2="76.269" y2="26.4913">
		<stop  offset="1.632771e-03" style="stop-color:#5C62DE"/>
		<stop  offset="0.9992" style="stop-color:#A77FEE"/>
	</linearGradient>
	<polygon class="st0" points="66.8,34.6 62.3,31.5 71.8,18.4 76.3,21.5 	"/>
</g>
<g>
	<linearGradient id="SVGID_2_" gradientUnits="userSpaceOnUse" x1="31.7673" y1="28.5663" x2="46.5362" y2="28.5663">
		<stop  offset="1.632771e-03" style="stop-color:#5C62DE"/>
		<stop  offset="0.9992" style="stop-color:#A77FEE"/>
	</linearGradient>
	<polygon class="st1" points="46.5,32.9 42.4,36.4 31.8,24.2 35.9,20.7 	"/>
</g>
<g>
	<linearGradient id="SVGID_3_" gradientUnits="userSpaceOnUse" x1="19.5703" y1="42.3095" x2="36.2033" y2="42.3095">
		<stop  offset="0" style="stop-color:#FF816C"/>
		<stop  offset="1" style="stop-color:#FFAC9F"/>
	</linearGradient>
	<polygon class="st2" points="36.2,40.2 35.8,45.6 19.6,44.4 20,39 	"/>
</g>
<g>
	<linearGradient id="SVGID_4_" gradientUnits="userSpaceOnUse" x1="28.3404" y1="59.6086" x2="44.9058" y2="59.6086">
		<stop  offset="1.632771e-03" style="stop-color:#5C62DE"/>
		<stop  offset="0.9992" style="stop-color:#A77FEE"/>
	</linearGradient>
	<polygon class="st3" points="41.9,52.9 44.9,57.4 31.4,66.3 28.3,61.8 	"/>
</g>
<g>
	<linearGradient id="SVGID_5_" gradientUnits="userSpaceOnUse" x1="64.1732" y1="60.1195" x2="78.2422" y2="66.3527">
		<stop  offset="0" style="stop-color:#FF816C"/>
		<stop  offset="0.6699" style="stop-color:#FFAC9F"/>
	</linearGradient>
	<polygon class="st4" points="78.3,66.7 74.5,70.6 62.9,59.2 66.8,55.4 	"/>
</g>
<linearGradient id="SVGID_6_" gradientUnits="userSpaceOnUse" x1="33.3459" y1="45.9005" x2="76.6064" y2="45.9005">
	<stop  offset="1.632771e-03" style="stop-color:#5C62DE"/>
	<stop  offset="0.9992" style="stop-color:#A77FEE"/>
</linearGradient>
<ellipse class="st5" cx="55" cy="45.9" rx="21.6" ry="21.4"/>
<ellipse class="st6" cx="55" cy="45.9" rx="9.6" ry="9.5"/>
<linearGradient id="SVGID_7_" gradientUnits="userSpaceOnUse" x1="66.923" y1="14.473" x2="88.5366" y2="14.473">
	<stop  offset="1.632771e-03" style="stop-color:#5C62DE"/>
	<stop  offset="0.9992" style="stop-color:#A77FEE"/>
</linearGradient>
<ellipse class="st7" cx="77.7" cy="14.5" rx="10.8" ry="10.7"/>
<linearGradient id="SVGID_8_" gradientUnits="userSpaceOnUse" x1="15.5085" y1="16.3223" x2="40.2651" y2="16.3223">
	<stop  offset="1.632771e-03" style="stop-color:#5C62DE"/>
	<stop  offset="0.9992" style="stop-color:#A77FEE"/>
</linearGradient>
<ellipse class="st8" cx="27.9" cy="16.3" rx="12.4" ry="12.2"/>
<linearGradient id="SVGID_9_" gradientUnits="userSpaceOnUse" x1="3.5544" y1="40.2708" x2="22.0031" y2="40.2708">
	<stop  offset="0" style="stop-color:#FF816C"/>
	<stop  offset="1" style="stop-color:#FFAC9F"/>
</linearGradient>
<ellipse class="st9" cx="12.8" cy="40.3" rx="9.2" ry="9.1"/>
<linearGradient id="SVGID_10_" gradientUnits="userSpaceOnUse" x1="3.7323" y1="72.0932" x2="35.0525" y2="72.0932">
	<stop  offset="1.632771e-03" style="stop-color:#5C62DE"/>
	<stop  offset="0.9992" style="stop-color:#A77FEE"/>
</linearGradient>
<ellipse class="st10" cx="19.4" cy="72.1" rx="15.7" ry="15.5"/>
<ellipse class="st11" cx="19.4" cy="72.1" rx="6.8" ry="6.7"/>
<linearGradient id="SVGID_11_" gradientUnits="userSpaceOnUse" x1="70.088" y1="72.7128" x2="88.5366" y2="72.7128">
	<stop  offset="0" style="stop-color:#FF816C"/>
	<stop  offset="1" style="stop-color:#FFAC9F"/>
</linearGradient>
<ellipse class="st12" cx="79.3" cy="72.7" rx="9.2" ry="9.1"/>
</svg>
