<?xml version="1.0" encoding="utf-8"?>
<!-- Generator: Adobe Illustrator 25.2.3, SVG Export Plug-In . SVG Version: 6.00 Build 0)  -->
<svg version="1.1" id="图层_1" xmlns="http://www.w3.org/2000/svg" xmlns:xlink="http://www.w3.org/1999/xlink" x="0px" y="0px"
	 viewBox="0 0 92 92" style="enable-background:new 0 0 92 92;" xml:space="preserve">
<style type="text/css">
	.st0{opacity:0;fill:#D3D3D3;enable-background:new    ;}
	.st1{fill:url(#路径_486_1_);}
	.st2{fill:url(#路径_487_1_);}
	.st3{fill:url(#路径_488_1_);}
	.st4{fill:url(#路径_489_1_);}
	.st5{fill:url(#路径_490_1_);}
	.st6{fill:url(#路径_491_1_);}
	.st7{fill:url(#路径_492_1_);}
	.st8{fill:url(#路径_493_1_);}
	.st9{fill:url(#路径_494_1_);}
	.st10{fill:url(#路径_495_1_);}
	.st11{fill:url(#椭圆_190_1_);}
	.st12{opacity:0.3;fill:#FFFFFF;enable-background:new    ;}
	.st13{opacity:0.75;fill:#FFFFFF;enable-background:new    ;}
</style>
<rect id="矩形_515" class="st0" width="92" height="92"/>
<g>
	
		<linearGradient id="路径_486_1_" gradientUnits="userSpaceOnUse" x1="-293.8042" y1="183.8849" x2="-292.8042" y2="183.8849" gradientTransform="matrix(10.9744 0 0 -18.3986 3259.4453 3400.2563)">
		<stop  offset="0" style="stop-color:#FFA2CB"/>
		<stop  offset="1" style="stop-color:#F24791"/>
	</linearGradient>
	<path id="路径_486" class="st1" d="M43,18.2c2.7-1.3,3.8-4.6,2.5-7.4s-4.6-3.8-7.4-2.5s-3.8,4.6-2.5,7.4c0.9,1.8,2.7,3,4.7,3
		l1.4,7.4c0.9-0.2,1.8-0.4,2.7-0.5L43,18.2z"/>
	
		<linearGradient id="路径_487_1_" gradientUnits="userSpaceOnUse" x1="-309.6048" y1="184.9121" x2="-308.6048" y2="184.9121" gradientTransform="matrix(20.401 0 0 -19.9 6378.5381 3706.0029)">
		<stop  offset="0" style="stop-color:#FFA2CB"/>
		<stop  offset="1" style="stop-color:#F24791"/>
	</linearGradient>
	<path id="路径_487" class="st2" d="M64.2,36.2l12.6-12.1c0.6,0.3,1.2,0.4,1.8,0.4c2.3,0,4.1-1.9,4.1-4.1c0-2.3-1.9-4.1-4.1-4.1
		s-4.1,1.9-4.1,4.1c0,0.6,0.1,1.2,0.4,1.7L62.3,34.2C63,34.9,63.6,35.5,64.2,36.2z"/>
	
		<linearGradient id="路径_488_1_" gradientUnits="userSpaceOnUse" x1="-292.3338" y1="179.6482" x2="-291.3338" y2="179.6482" gradientTransform="matrix(10.522 0 0 -14.0321 3131.167 2542.1646)">
		<stop  offset="0" style="stop-color:#5C62E6"/>
		<stop  offset="1" style="stop-color:#AF7FF6"/>
	</linearGradient>
	<path id="路径_488" class="st3" d="M60.9,22.5c0.2,0,0.5,0.1,0.7,0.1c2.3,0,4.1-1.8,4.1-4.1c0-2.3-1.8-4.1-4.1-4.1
		c-2.3,0-4.1,1.8-4.1,4.1c0,1,0.4,2,1,2.7L55.2,27c0.8,0.4,1.6,0.8,2.4,1.3L60.9,22.5z"/>
	
		<linearGradient id="路径_489_1_" gradientUnits="userSpaceOnUse" x1="-291.9628" y1="167.1483" x2="-290.9628" y2="167.1483" gradientTransform="matrix(10.4137 0 0 -8.2532 3056.9436 1422.2054)">
		<stop  offset="0" style="stop-color:#5C62E6"/>
		<stop  offset="1" style="stop-color:#AF7FF6"/>
	</linearGradient>
	<path id="路径_489" class="st4" d="M24.7,42.1c-0.3-2.3-2.5-3.8-4.7-3.4c-2.3,0.3-3.8,2.5-3.4,4.7c0.3,2.3,2.5,3.8,4.7,3.4
		c1.2-0.2,2.3-0.9,2.9-2l2.2,0.4c0.1-0.9,0.3-1.8,0.5-2.7L24.7,42.1z"/>
	
		<linearGradient id="路径_490_1_" gradientUnits="userSpaceOnUse" x1="-285.6913" y1="168.2362" x2="-284.6913" y2="168.2362" gradientTransform="matrix(8.87 0 0 -8.56 2558.3335 1470.0796)">
		<stop  offset="0" style="stop-color:#5C62E6"/>
		<stop  offset="1" style="stop-color:#AF7FF6"/>
	</linearGradient>
	<path id="路径_490" class="st5" d="M33.1,32.3l-2.8-2.6c0.1-0.3,0.1-0.6,0.1-0.9c0-1.7-1.4-3.1-3.1-3.1s-3.1,1.4-3.1,3.1
		s1.4,3.1,3.1,3.1c0.4,0,0.8-0.1,1.1-0.2l2.8,2.6C31.8,33.6,32.5,32.9,33.1,32.3z"/>
	
		<linearGradient id="路径_491_1_" gradientUnits="userSpaceOnUse" x1="-310.6099" y1="182.0148" x2="-309.6099" y2="182.0148" gradientTransform="matrix(21.58 0 0 -16.1766 6712.2231 3010.1519)">
		<stop  offset="0" style="stop-color:#FFA2CB"/>
		<stop  offset="1" style="stop-color:#F24791"/>
	</linearGradient>
	<path id="路径_491" class="st6" d="M18.6,64.4c-2.2-2.1-5.7-2-7.8,0.2c-2.1,2.2-2,5.7,0.2,7.8c2.2,2.1,5.7,2,7.8-0.2
		c1-1,1.5-2.4,1.5-3.8c0-0.6-0.1-1.1-0.2-1.6L30.8,60c-0.5-0.7-1-1.5-1.5-2.3L18.6,64.4z"/>
	
		<linearGradient id="路径_492_1_" gradientUnits="userSpaceOnUse" x1="-287.8373" y1="182.3758" x2="-286.8373" y2="182.3758" gradientTransform="matrix(9.344 0 0 -16.5627 2722.5161 3096.5234)">
		<stop  offset="0" style="stop-color:#5C62E6"/>
		<stop  offset="1" style="stop-color:#AF7FF6"/>
	</linearGradient>
	<path id="路径_492" class="st7" d="M37,75.9c-2.3,0.1-4.1,1.9-4,4.2c0.1,2.3,1.9,4.1,4.2,4c2.3-0.1,4.1-1.9,4-4.2
		c0-1.2-0.6-2.4-1.6-3.2l2.7-8.3c-0.9-0.2-1.8-0.5-2.6-0.8L37,75.9z"/>
	
		<linearGradient id="路径_493_1_" gradientUnits="userSpaceOnUse" x1="-304.5184" y1="167.0889" x2="-303.5184" y2="167.0889" gradientTransform="matrix(15.9818 0 0 -8.2371 4933.519 1424.318)">
		<stop  offset="0" style="stop-color:#5C62E6"/>
		<stop  offset="1" style="stop-color:#AF7FF6"/>
	</linearGradient>
	<path id="路径_493" class="st8" d="M78.6,43.9c-1.7,0-3.3,1.1-3.9,2.8h-8c0,0.5,0.1,0.9,0.1,1.4s0,0.9-0.1,1.4h8
		c0.8,2.1,3.1,3.3,5.3,2.5c2.1-0.8,3.3-3.1,2.5-5.3C81.9,45,80.4,43.9,78.6,43.9z"/>
	
		<linearGradient id="路径_494_1_" gradientUnits="userSpaceOnUse" x1="-305.2018" y1="182.0913" x2="-304.2018" y2="182.0913" gradientTransform="matrix(16.4609 0 0 -16.257 5084.9624 3027.8428)">
		<stop  offset="0" style="stop-color:#FFA2CB"/>
		<stop  offset="1" style="stop-color:#F24791"/>
	</linearGradient>
	<path id="路径_494" class="st9" d="M61.1,61.4l6.2,6.1c-1.5,2.6-0.6,6,2,7.5c2.6,1.5,6,0.6,7.5-2s0.6-6-2-7.5
		C73.9,65,73,64.7,72,64.7c-1,0-2,0.3-2.8,0.8L63,59.5C62.4,60.1,61.7,60.8,61.1,61.4z"/>
	
		<linearGradient id="路径_495_1_" gradientUnits="userSpaceOnUse" x1="-267.0248" y1="177.6041" x2="-266.7978" y2="176.9241" gradientTransform="matrix(6.1899 0 0 -12.4621 1705.2208 2282.3052)">
		<stop  offset="0" style="stop-color:#5C62E6"/>
		<stop  offset="1" style="stop-color:#AF7FF6"/>
	</linearGradient>
	<path id="路径_495" class="st10" d="M54.2,71.7L54,70.9l-1.1-5.6h-2.7l1.1,6.1l0.1,0.8c-1.4,1-1.7,2.9-0.7,4.3
		c1,1.4,2.9,1.7,4.3,0.7s1.7-2.9,0.7-4.3C55.4,72.3,54.8,71.9,54.2,71.7L54.2,71.7z"/>
	
		<linearGradient id="椭圆_190_1_" gradientUnits="userSpaceOnUse" x1="-318.5716" y1="191.4987" x2="-319.3116" y2="192.0697" gradientTransform="matrix(44 0 0 -44 14082 8486.5)">
		<stop  offset="0" style="stop-color:#5C62E6"/>
		<stop  offset="1" style="stop-color:#AF7FF6"/>
	</linearGradient>
	<circle id="椭圆_190" class="st11" cx="47.3" cy="47" r="22"/>
	<circle id="椭圆_187" class="st12" cx="59.3" cy="52.1" r="3"/>
	<circle id="椭圆_188" class="st13" cx="49.1" cy="38.6" r="6"/>
	<circle id="椭圆_189" class="st12" cx="40.6" cy="52.1" r="4.8"/>
</g>
</svg>
