<?xml version="1.0" encoding="utf-8"?>
<!-- Generator: Adobe Illustrator 25.2.3, SVG Export Plug-In . SVG Version: 6.00 Build 0)  -->
<svg version="1.1" id="图层_1" xmlns="http://www.w3.org/2000/svg" xmlns:xlink="http://www.w3.org/1999/xlink" x="0px" y="0px"
	 viewBox="0 0 92 92" style="enable-background:new 0 0 92 92;" xml:space="preserve">
<style type="text/css">
	.st0{opacity:0;fill:#D3D3D3;}
	.st1{fill:url(#路径_467_1_);}
	.st2{fill:url(#路径_468_1_);}
	.st3{fill:url(#路径_470_1_);}
	.st4{opacity:0.75;fill:#FFFFFF;enable-background:new    ;}
	.st5{fill:url(#路径_471_1_);}
</style>
<rect class="st0" width="92" height="92"/>
<g>
	
		<linearGradient id="路径_467_1_" gradientUnits="userSpaceOnUse" x1="-323.576" y1="194.1717" x2="-322.576" y2="194.1717" gradientTransform="matrix(85.2961 0 0 -76.3596 27603.125 14868.7031)">
		<stop  offset="2.000000e-03" style="stop-color:#5C62E4"/>
		<stop  offset="0.999" style="stop-color:#AD7FF4"/>
	</linearGradient>
	<path id="路径_467_3_" class="st1" d="M84,62.7L84,62.7c-3.2-1.8-7.1-1.6-10.1,0.5l-7.1-4.1V48.9c-4.3-1.7-7.2-5.9-7.2-10.5
		c0-1,0.1-2,0.4-2.9l-10.2-5.9v-8.1c3.3-1.5,5.5-4.8,5.5-8.5c0-5.1-4.2-9.3-9.3-9.3c0,0,0,0,0,0c-5.1,0-9.3,4.2-9.3,9.3
		c0,3.7,2.2,7,5.5,8.5v8.1l-10.3,6c0.3,1,0.4,1.9,0.4,2.9c0,4.7-2.9,8.8-7.2,10.6V59l-7,4.1c-3-2.1-6.9-2.3-10.1-0.5l0,0
		c-4.4,2.6-6,8.2-3.4,12.7c2.6,4.4,8.2,6,12.7,3.4c0,0,0,0,0,0l0,0c3.2-1.8,5-5.4,4.6-9l7-4l9.9,5.7c2-1.7,4.6-2.7,7.3-2.7
		c2.6,0,5.2,0.9,7.2,2.6l9.8-5.6l7.1,4.1c-0.4,3.6,1.4,7.2,4.6,9c4.4,2.6,10.1,1,12.7-3.4l0,0l0,0C90,70.9,88.4,65.2,84,62.7
		C84,62.7,84,62.7,84,62.7z"/>
	
		<linearGradient id="路径_468_1_" gradientUnits="userSpaceOnUse" x1="-305.3716" y1="182.2635" x2="-304.3716" y2="182.2635" gradientTransform="matrix(16.676 0 0 -16.68 5155.0581 3078.5286)">
		<stop  offset="0" style="stop-color:#FFA2CB"/>
		<stop  offset="1" style="stop-color:#F24791"/>
	</linearGradient>
	<path id="路径_468_3_" class="st2" d="M71,30c-4.1,0-7.6,3-8.2,7c-0.1,0.4-0.1,0.9-0.1,1.4c0,3,1.6,5.7,4.2,7.2
		c1.3,0.7,2.7,1.1,4.2,1.1c4.6,0,8.3-3.7,8.3-8.3v0C79.4,33.8,75.6,30,71,30z"/>
	
		<linearGradient id="路径_470_1_" gradientUnits="userSpaceOnUse" x1="-305.3716" y1="182.2599" x2="-304.3716" y2="182.2599" gradientTransform="matrix(16.676 0 0 -16.6761 5130.0771 3119.4001)">
		<stop  offset="0" style="stop-color:#FFA2CB"/>
		<stop  offset="1" style="stop-color:#F24791"/>
	</linearGradient>
	<path id="路径_470_3_" class="st3" d="M50.4,72.9c-1.3-0.8-2.8-1.3-4.4-1.3c-1.6,0-3.1,0.4-4.4,1.3c-2.4,1.5-3.9,4.2-3.9,7
		c0,4.6,3.7,8.3,8.3,8.3l0,0c4.6,0,8.3-3.7,8.3-8.3l0,0C54.4,77.1,52.9,74.5,50.4,72.9z"/>
	<circle id="椭圆_183_3_" class="st4" cx="45.6" cy="50.4" r="9"/>
	
		<linearGradient id="路径_471_1_" gradientUnits="userSpaceOnUse" x1="-305.3716" y1="182.2599" x2="-304.3716" y2="182.2599" gradientTransform="matrix(16.676 0 0 -16.6761 5104.3203 3077.7551)">
		<stop  offset="0" style="stop-color:#FFA2CB"/>
		<stop  offset="1" style="stop-color:#F24791"/>
	</linearGradient>
	<path id="路径_471_3_" class="st5" d="M24.7,31.3c-1.3-0.8-2.8-1.3-4.4-1.3c-1.6,0-3.1,0.4-4.4,1.3c-2.4,1.5-3.9,4.2-3.9,7
		c0,4.6,3.7,8.3,8.3,8.3l0,0c4.6,0,8.3-3.7,8.3-8.3l0,0C28.6,35.5,27.1,32.8,24.7,31.3z"/>
</g>
</svg>
