<?xml version="1.0" encoding="utf-8"?>
<!-- Generator: Adobe Illustrator 25.2.3, SVG Export Plug-In . SVG Version: 6.00 Build 0)  -->
<svg version="1.1" id="图层_1" xmlns="http://www.w3.org/2000/svg" xmlns:xlink="http://www.w3.org/1999/xlink" x="0px" y="0px"
	 viewBox="0 0 92 92" style="enable-background:new 0 0 92 92;" xml:space="preserve">
<style type="text/css">
	.st0{opacity:0;fill:#062EEC;}
	.st1{fill:url(#SVGID_1_);}
	.st2{fill:url(#SVGID_2_);}
	.st3{fill:url(#SVGID_3_);}
	.st4{fill:url(#SVGID_4_);}
	.st5{opacity:0.75;fill:#FFFFFF;enable-background:new    ;}
	.st6{fill:url(#SVGID_5_);}
	.st7{fill:url(#SVGID_6_);}
	.st8{fill:url(#SVGID_7_);}
	.st9{fill:url(#SVGID_8_);}
	.st10{fill:url(#SVGID_9_);}
	.st11{opacity:0.3;fill:#FFFFFF;enable-background:new    ;}
	.st12{fill:url(#SVGID_10_);}
	.st13{fill:url(#SVGID_11_);}
	.st14{fill:url(#SVGID_12_);}
	.st15{fill:url(#SVGID_13_);}
	.st16{fill:url(#SVGID_14_);}
</style>
<rect class="st0" width="92" height="92"/>
<g>
	<linearGradient id="SVGID_1_" gradientUnits="userSpaceOnUse" x1="20.8286" y1="37.9101" x2="44.5815" y2="37.9101">
		<stop  offset="0" style="stop-color:#99E3A7"/>
		<stop  offset="1" style="stop-color:#07C0B1"/>
	</linearGradient>
	<polygon class="st1" points="25.1,50.4 20.8,46.5 40.3,25.4 44.6,29.3 	"/>
</g>
<linearGradient id="SVGID_2_" gradientUnits="userSpaceOnUse" x1="11.7479" y1="50.4496" x2="34.2141" y2="50.4496">
	<stop  offset="2.000000e-03" style="stop-color:#5C62DE"/>
	<stop  offset="0.999" style="stop-color:#A77FEE"/>
</linearGradient>
<circle class="st2" cx="23" cy="50.4" r="11.2"/>
<g>
	
		<linearGradient id="SVGID_3_" gradientUnits="userSpaceOnUse" x1="-1446.3597" y1="743.4052" x2="-1422.6069" y2="743.4052" gradientTransform="matrix(0.1511 -0.9885 0.9885 0.1511 -456.1718 -1491.116)">
		<stop  offset="0" style="stop-color:#99E3A7"/>
		<stop  offset="1" style="stop-color:#07C0B1"/>
	</linearGradient>
	<polygon class="st3" points="73.2,48.6 68.6,52.2 50.7,29.8 55.3,26.2 	"/>
</g>
<linearGradient id="SVGID_4_" gradientUnits="userSpaceOnUse" x1="32.9713" y1="20.8228" x2="61.9752" y2="20.8228">
	<stop  offset="2.000000e-03" style="stop-color:#5C62DE"/>
	<stop  offset="0.999" style="stop-color:#A77FEE"/>
</linearGradient>
<circle class="st4" cx="47.5" cy="20.8" r="14.5"/>
<circle class="st5" cx="47.5" cy="20.8" r="8"/>
<g>
	<linearGradient id="SVGID_5_" gradientUnits="userSpaceOnUse" x1="10.991" y1="67.0188" x2="21.342" y2="67.0188">
		<stop  offset="2.000000e-03" style="stop-color:#5C62DE"/>
		<stop  offset="0.999" style="stop-color:#A77FEE"/>
	</linearGradient>
	<polygon class="st6" points="14.6,76.7 11,75.3 17.7,57.4 21.3,58.7 	"/>
</g>
<g>
	<linearGradient id="SVGID_6_" gradientUnits="userSpaceOnUse" x1="23.361" y1="66.683" x2="33.712" y2="66.683">
		<stop  offset="2.000000e-03" style="stop-color:#5C62DE"/>
		<stop  offset="0.999" style="stop-color:#A77FEE"/>
	</linearGradient>
	<polygon class="st7" points="30.1,76.3 33.7,75 27,57 23.4,58.4 	"/>
</g>
<g>
	<linearGradient id="SVGID_7_" gradientUnits="userSpaceOnUse" x1="60.8196" y1="68.1306" x2="71.1705" y2="68.1306">
		<stop  offset="2.000000e-03" style="stop-color:#5C62DE"/>
		<stop  offset="0.999" style="stop-color:#A77FEE"/>
	</linearGradient>
	<polygon class="st8" points="64.5,77.8 60.8,76.4 67.5,58.5 71.2,59.8 	"/>
</g>
<g>
	<linearGradient id="SVGID_8_" gradientUnits="userSpaceOnUse" x1="73.1896" y1="67.7948" x2="83.5405" y2="67.7948">
		<stop  offset="2.000000e-03" style="stop-color:#5C62DE"/>
		<stop  offset="0.999" style="stop-color:#A77FEE"/>
	</linearGradient>
	<polygon class="st9" points="79.9,77.5 83.5,76.1 76.8,58.1 73.2,59.5 	"/>
</g>
<g>
	<linearGradient id="SVGID_9_" gradientUnits="userSpaceOnUse" x1="11.7479" y1="50.4496" x2="34.2141" y2="50.4496">
		<stop  offset="2.000000e-03" style="stop-color:#5C62DE"/>
		<stop  offset="0.999" style="stop-color:#A77FEE"/>
	</linearGradient>
	<circle class="st10" cx="23" cy="50.4" r="11.2"/>
	<circle class="st11" cx="23" cy="50.4" r="5.6"/>
</g>
<g>
	<linearGradient id="SVGID_10_" gradientUnits="userSpaceOnUse" x1="58.9053" y1="50.4496" x2="81.3715" y2="50.4496">
		<stop  offset="2.000000e-03" style="stop-color:#5C62DE"/>
		<stop  offset="0.999" style="stop-color:#A77FEE"/>
	</linearGradient>
	<circle class="st12" cx="70.1" cy="50.4" r="11.2"/>
	<circle class="st11" cx="70.1" cy="50.4" r="5.6"/>
</g>
<linearGradient id="SVGID_11_" gradientUnits="userSpaceOnUse" x1="4.3192" y1="78.6155" x2="19.513" y2="78.6155">
	<stop  offset="0" style="stop-color:#99E3A7"/>
	<stop  offset="1" style="stop-color:#07C0B1"/>
</linearGradient>
<circle class="st13" cx="11.9" cy="78.6" r="7.6"/>
<linearGradient id="SVGID_12_" gradientUnits="userSpaceOnUse" x1="25.3744" y1="78.6155" x2="40.5682" y2="78.6155">
	<stop  offset="2.000000e-03" style="stop-color:#5C62DE"/>
	<stop  offset="0.999" style="stop-color:#A77FEE"/>
</linearGradient>
<circle class="st14" cx="33" cy="78.6" r="7.6"/>
<linearGradient id="SVGID_13_" gradientUnits="userSpaceOnUse" x1="54.2363" y1="78.6155" x2="69.4301" y2="78.6155">
	<stop  offset="0" style="stop-color:#99E3A7"/>
	<stop  offset="1" style="stop-color:#07C0B1"/>
</linearGradient>
<circle class="st15" cx="61.8" cy="78.6" r="7.6"/>
<linearGradient id="SVGID_14_" gradientUnits="userSpaceOnUse" x1="75.2915" y1="78.6155" x2="90.4853" y2="78.6155">
	<stop  offset="2.000000e-03" style="stop-color:#5C62DE"/>
	<stop  offset="0.999" style="stop-color:#A77FEE"/>
</linearGradient>
<circle class="st16" cx="82.9" cy="78.6" r="7.6"/>
</svg>
