<svg xml:space="preserve" style="enable-background:new 0 0 92 92;" viewBox="0 0 92 92" y="0px" x="0px" xmlns:xlink="http://www.w3.org/1999/xlink" xmlns="http://www.w3.org/2000/svg" id="图层_1" version="1.1">
<style type="text/css">
	.st0{opacity:0;fill:#062EE9;}
	.st1{fill:url(#SVGID_1_);}
	.st2{fill:url(#SVGID_2_);}
	.st3{fill:url(#SVGID_3_);}
	.st4{fill:url(#SVGID_4_);}
	.st5{fill:url(#SVGID_5_);}
	.st6{fill:url(#SVGID_6_);}
	.st7{fill:url(#SVGID_7_);}
	.st8{fill:url(#SVGID_8_);}
	.st9{fill:url(#SVGID_9_);}
	.st10{fill:url(#SVGID_10_);}
	.st11{fill:url(#SVGID_11_);}
	.st12{fill:url(#SVGID_12_);}
	.st13{fill:url(#SVGID_13_);}
	.st14{fill:url(#SVGID_14_);}
	.st15{fill:url(#SVGID_15_);}
	.st16{fill:url(#SVGID_16_);}
	.st17{opacity:0.3;enable-background:new    ;}
	.st18{fill:#FFFFFF;}
	.st19{fill:url(#SVGID_17_);}
</style>
<rect height="92" width="92" class="st0"></rect>
<g>
	<linearGradient y2="31.0966" x2="63.7841" y1="31.0966" x1="50.0866" gradientUnits="userSpaceOnUse" id="SVGID_1_">
		<stop style="stop-color:#FF99C2" offset="0"></stop>
		<stop style="stop-color:#E94788" offset="1"></stop>
	</linearGradient>
	<polygon points="62.3,26.3 50.1,33.3 51.6,35.9 63.8,28.9" class="st1"></polygon>
	<linearGradient y2="22.8287" x2="82.1278" y1="22.8287" x1="60.3838" gradientUnits="userSpaceOnUse" id="SVGID_2_">
		<stop style="stop-color:#FF99C2" offset="0"></stop>
		<stop style="stop-color:#E94788" offset="1"></stop>
	</linearGradient>
	<circle r="10.9" cy="22.8" cx="71.3" class="st2"></circle>
	<linearGradient y2="29.2333" x2="33.796" y1="29.2333" x1="19.9419" gradientUnits="userSpaceOnUse" id="SVGID_3_">
		<stop style="stop-color:#5C62DD" offset="0"></stop>
		<stop style="stop-color:#A67FED" offset="1"></stop>
	</linearGradient>
	<polygon points="33.8,32.2 21.7,23.8 19.9,26.2 32.1,34.7" class="st3"></polygon>
	<linearGradient y2="52.773" x2="62.8895" y1="52.773" x1="48.7355" gradientUnits="userSpaceOnUse" id="SVGID_4_">
		<stop style="stop-color:#FF806C" offset="0"></stop>
		<stop style="stop-color:#FFA99C" offset="1"></stop>
	</linearGradient>
	<polygon points="62.9,57.7 50.9,45.7 48.7,47.8 60.8,59.9" class="st4"></polygon>
	<linearGradient y2="51.8192" x2="36.4726" y1="51.8192" x1="22.8421" gradientUnits="userSpaceOnUse" id="SVGID_5_">
		<stop style="stop-color:#96E0A4" offset="0"></stop>
		<stop style="stop-color:#07BDAE" offset="1"></stop>
	</linearGradient>
	<polygon points="24.8,58.1 36.5,47.8 34.5,45.5 22.8,55.8" class="st5"></polygon>
	<linearGradient y2="20.8553" x2="23.5091" y1="20.8553" x1="6.2275" gradientUnits="userSpaceOnUse" id="SVGID_6_">
		<stop style="stop-color:#5C62DD" offset="0"></stop>
		<stop style="stop-color:#A67FED" offset="1"></stop>
	</linearGradient>
	<circle r="8.6" cy="20.9" cx="14.9" class="st6"></circle>
	<linearGradient y2="66.1764" x2="30.3033" y1="66.1764" x1="3.9791" gradientUnits="userSpaceOnUse" id="SVGID_7_">
		<stop style="stop-color:#96E0A4" offset="0"></stop>
		<stop style="stop-color:#07BDAE" offset="1"></stop>
	</linearGradient>
	<circle r="13.2" cy="66.2" cx="17.1" class="st7"></circle>
	<linearGradient y2="70.2783" x2="88.0209" y1="70.2783" x1="54.4908" gradientUnits="userSpaceOnUse" id="SVGID_8_">
		<stop style="stop-color:#FF806C" offset="0"></stop>
		<stop style="stop-color:#FFA99C" offset="1"></stop>
	</linearGradient>
	<circle r="16.8" cy="70.3" cx="71.3" class="st8"></circle>
	<g>
		<linearGradient y2="16.9293" x2="48.0108" y1="16.9293" x1="36.0108" gradientUnits="userSpaceOnUse" id="SVGID_9_">
			<stop style="stop-color:#FF99C2" offset="0"></stop>
			<stop style="stop-color:#E94788" offset="1"></stop>
		</linearGradient>
		<path d="M42,22.9c-3.3,0-6-2.7-6-6c0-3.3,2.7-6,6-6c3.3,0,6,2.7,6,6C48,20.2,45.3,22.9,42,22.9z M42,15
			c-1.1,0-1.9,0.9-1.9,1.9c0,1.1,0.9,1.9,1.9,1.9c1.1,0,1.9-0.9,1.9-1.9C43.9,15.9,43.1,15,42,15z" class="st9"></path>
	</g>
	<linearGradient y2="6.9567" x2="44.233" y1="6.9567" x1="40.233" gradientUnits="userSpaceOnUse" id="SVGID_10_">
		<stop style="stop-color:#FF99C2" offset="0"></stop>
		<stop style="stop-color:#E94788" offset="1"></stop>
	</linearGradient>
	<circle r="2" cy="7" cx="42.2" class="st10"></circle>
	<g>
		<linearGradient y2="62.3563" x2="48.0108" y1="62.3563" x1="36.0108" gradientUnits="userSpaceOnUse" id="SVGID_11_">
			<stop style="stop-color:#96E0A4" offset="0"></stop>
			<stop style="stop-color:#07BDAE" offset="1"></stop>
		</linearGradient>
		<path d="M42,68.4c-3.3,0-6-2.7-6-6c0-3.3,2.7-6,6-6c3.3,0,6,2.7,6,6C48,65.7,45.3,68.4,42,68.4z M42,60.4
			c-1.1,0-1.9,0.9-1.9,1.9c0,1.1,0.9,1.9,1.9,1.9c1.1,0,1.9-0.9,1.9-1.9C43.9,61.3,43.1,60.4,42,60.4z" class="st11"></path>
	</g>
	<linearGradient y2="72.3287" x2="44.233" y1="72.3287" x1="40.233" gradientUnits="userSpaceOnUse" id="SVGID_12_">
		<stop style="stop-color:#96E0A4" offset="0"></stop>
		<stop style="stop-color:#07BDAE" offset="1"></stop>
	</linearGradient>
	<circle r="2" cy="72.3" cx="42.2" class="st12"></circle>
	<g>
		<linearGradient y2="42.4791" x2="70.7435" y1="42.4791" x1="58.7435" gradientUnits="userSpaceOnUse" id="SVGID_13_">
			<stop style="stop-color:#FF806C" offset="0"></stop>
			<stop style="stop-color:#FFA99C" offset="1"></stop>
		</linearGradient>
		<path d="M64.7,48.5c-3.3,0-6-2.7-6-6c0-3.3,2.7-6,6-6c3.3,0,6,2.7,6,6C70.7,45.8,68.1,48.5,64.7,48.5z M64.7,40.6
			c-1.1,0-1.9,0.9-1.9,1.9c0,1.1,0.9,1.9,1.9,1.9c1.1,0,1.9-0.9,1.9-1.9C66.7,41.4,65.8,40.6,64.7,40.6z" class="st13"></path>
	</g>
	<linearGradient y2="42.7013" x2="76.716" y1="42.7013" x1="72.716" gradientUnits="userSpaceOnUse" id="SVGID_14_">
		<stop style="stop-color:#FF806C" offset="0"></stop>
		<stop style="stop-color:#FFA99C" offset="1"></stop>
	</linearGradient>
	<circle r="2" cy="42.7" cx="74.7" class="st14"></circle>
	<g>
		<linearGradient y2="42.4791" x2="26.3165" y1="42.4791" x1="14.3165" gradientUnits="userSpaceOnUse" id="SVGID_15_">
			<stop style="stop-color:#5C62DD" offset="0"></stop>
			<stop style="stop-color:#A67FED" offset="1"></stop>
		</linearGradient>
		<path d="M20.3,48.5c-3.3,0-6-2.7-6-6c0-3.3,2.7-6,6-6s6,2.7,6,6C26.3,45.8,23.6,48.5,20.3,48.5z M20.3,40.6
			c-1.1,0-1.9,0.9-1.9,1.9c0,1.1,0.9,1.9,1.9,1.9c1.1,0,1.9-0.9,1.9-1.9C22.2,41.4,21.4,40.6,20.3,40.6z" class="st15"></path>
	</g>
	<linearGradient y2="42.7013" x2="11.344" y1="42.7013" x1="7.344" gradientUnits="userSpaceOnUse" id="SVGID_16_">
		<stop style="stop-color:#5C62DD" offset="0"></stop>
		<stop style="stop-color:#A67FED" offset="1"></stop>
	</linearGradient>
	<circle r="2" cy="42.7" cx="9.3" class="st16"></circle>
	<g class="st17">
		<path d="M66.5,24.3c-0.8,0-1.5-0.6-1.5-1.5c0-0.3,0-2.5,1.5-4.1c0.7-0.7,1.9-1.4,3.8-1.4c0.8,0,1.5,0.7,1.5,1.5
			c0,0.8-0.7,1.5-1.5,1.5c0,0-0.1,0-0.1,0c-0.7,0-1.2,0.2-1.5,0.5c-0.6,0.6-0.7,1.6-0.7,1.9C68,23.6,67.4,24.3,66.5,24.3
			C66.5,24.3,66.5,24.3,66.5,24.3z" class="st18"></path>
	</g>
	<g class="st17">
		<path d="M10.8,22.1c-0.8,0-1.5-0.6-1.5-1.4c0-0.2,0-1.9,1.2-3.1c0.5-0.5,1.4-1.1,2.9-1.1c0.8,0,1.5,0.7,1.5,1.5
			c0,0.8-0.7,1.5-1.5,1.5c-0.5,0-0.7,0.1-0.7,0.2c-0.2,0.2-0.3,0.7-0.3,0.9C12.3,21.4,11.6,22.1,10.8,22.1
			C10.8,22.1,10.8,22.1,10.8,22.1z" class="st18"></path>
	</g>
	<g class="st17">
		<path d="M12,67.3c-0.8,0-1.5-0.6-1.5-1.5c0-0.1-0.1-3.4,2.1-5.5c1.3-1.3,3-1.9,5.1-1.9c0.8,0,1.5,0.7,1.5,1.5
			c0,0.8-0.7,1.4-1.5,1.5c-1.3,0-2.2,0.3-2.9,1c-1.2,1.2-1.2,3.3-1.2,3.4C13.5,66.6,12.9,67.2,12,67.3C12.1,67.3,12,67.3,12,67.3z" class="st18"></path>
	</g>
	<g class="st17">
		<path d="M79.8,70.8c-0.1,0-0.1,0-0.2,0c-0.8-0.1-1.4-0.9-1.3-1.7c0.2-1.3-0.1-2.3-0.7-3c-1.1-1.4-3.2-1.6-3.2-1.6
			c-0.8-0.1-1.4-0.8-1.4-1.6s0.8-1.4,1.6-1.4c0.1,0,3.4,0.3,5.3,2.7c1.1,1.4,1.6,3.2,1.3,5.3C81.2,70.3,80.5,70.8,79.8,70.8z" class="st18"></path>
	</g>
	<linearGradient y2="39.5106" x2="55.0294" y1="39.5106" x1="29.4367" gradientUnits="userSpaceOnUse" id="SVGID_17_">
		<stop style="stop-color:#5C62DD" offset="0"></stop>
		<stop style="stop-color:#A67FED" offset="1"></stop>
	</linearGradient>
	<circle r="12.8" cy="39.5" cx="42.2" class="st19"></circle>
	<g>
		<path d="M36.3,41.7c-0.8,0-1.5-0.6-1.5-1.5c0-0.1-0.1-3.4,2.1-5.5c1.3-1.3,3-1.9,5.1-1.9c0.8,0,1.5,0.7,1.5,1.5
			c0,0.8-0.7,1.5-1.5,1.5c-1.3,0-2.2,0.3-2.9,1c-1.2,1.2-1.2,3.3-1.2,3.4C37.8,41,37.1,41.7,36.3,41.7
			C36.3,41.7,36.3,41.7,36.3,41.7z" class="st18"></path>
	</g>
</g>
</svg>
