<?xml version="1.0" encoding="utf-8"?>
<!-- Generator: Adobe Illustrator 25.2.3, SVG Export Plug-In . SVG Version: 6.00 Build 0)  -->
<svg version="1.1" id="图层_1" xmlns="http://www.w3.org/2000/svg" xmlns:xlink="http://www.w3.org/1999/xlink" x="0px" y="0px"
	 viewBox="0 0 92 92" style="enable-background:new 0 0 92 92;" xml:space="preserve">
<style type="text/css">
	.st0{opacity:0;fill:#062EEC;}
	.st1{fill:url(#SVGID_1_);}
	.st2{fill:url(#SVGID_2_);}
	.st3{fill:url(#SVGID_3_);}
	.st4{fill:url(#SVGID_4_);}
	.st5{fill:url(#SVGID_5_);}
	.st6{fill:url(#SVGID_6_);}
</style>
<rect class="st0" width="92" height="92"/>
<g>
	<linearGradient id="SVGID_1_" gradientUnits="userSpaceOnUse" x1="11.7556" y1="44.2973" x2="83.1124" y2="44.2973">
		<stop  offset="0" style="stop-color:#5C62E0"/>
		<stop  offset="1" style="stop-color:#A97FF0"/>
	</linearGradient>
	<path class="st1" d="M80.6,12c-14.5,2.1-29,4.1-43.5,6.1c-0.1,0-0.2,0-0.3,0.1c-0.7-0.6-1.8-0.8-2.7,0c-6.8,6.2-14,12.1-21.4,17.6
		c-2.1,1.6-0.1,5.1,2.1,3.6c7.5-5.6,14.7-11.5,21.7-17.8c0.1,0,0.1,0.1,0.2,0.1c-0.5,0.7-0.6,1.8,0.1,2.6
		c6.5,7.2,12.6,14.7,18.4,22.6c-12-3.3-24.1-6.5-36.2-9.6c-2-0.5-3.1,1.9-2.2,3.2c-0.5,0.6-0.7,1.4-0.1,2.2
		c6.9,9.5,14.2,18.7,22,27.5c0.3,0.3,0.6,0.5,1,0.6c-0.7,0.7-1.5,1.5-2.2,2.2c-1.9,1.9,1,4.8,2.9,2.9c6.8-6.8,13.5-13.6,20.3-20.4
		c1.9-1.9-1-4.8-2.9-2.9C52.4,58,47.2,63.2,42,68.4c0-0.4-0.2-0.8-0.5-1.1c-7.1-8.1-13.8-16.5-20.2-25.2C32.4,45,43.6,48,54.7,51
		c1.4,0.4,2.3-0.6,2.5-1.7c0.1,0,0.2,0.1,0.3,0.1c0.9,0.6,2.2,0.6,2.9-0.6c6.4-9.8,12.8-19.5,19.2-29.3c1.5-2.2-2.1-4.3-3.5-2.1
		c-5.9,9-11.8,18-17.7,27C52.6,36.6,46.5,29.1,40,21.8c13.9-1.9,27.8-3.9,41.7-5.8C84.2,15.6,83.1,11.6,80.6,12z"/>
	<linearGradient id="SVGID_2_" gradientUnits="userSpaceOnUse" x1="26.9309" y1="70.8056" x2="52.1403" y2="70.8056">
		<stop  offset="0" style="stop-color:#FF9CC5"/>
		<stop  offset="1" style="stop-color:#EC478B"/>
	</linearGradient>
	<circle class="st2" cx="39.5" cy="70.8" r="12.6"/>
	<linearGradient id="SVGID_3_" gradientUnits="userSpaceOnUse" x1="47.434" y1="50.3437" x2="66.2597" y2="50.3437">
		<stop  offset="0" style="stop-color:#FF816C"/>
		<stop  offset="1" style="stop-color:#FFAC9F"/>
	</linearGradient>
	<circle class="st3" cx="56.8" cy="50.3" r="9.4"/>
	<linearGradient id="SVGID_4_" gradientUnits="userSpaceOnUse" x1="6.5653" y1="39.401" x2="24.6183" y2="39.401">
		<stop  offset="0" style="stop-color:#99E3A7"/>
		<stop  offset="1" style="stop-color:#07C0B1"/>
	</linearGradient>
	<circle class="st4" cx="15.6" cy="39.4" r="9"/>
	<linearGradient id="SVGID_5_" gradientUnits="userSpaceOnUse" x1="30.7749" y1="19.771" x2="43.1933" y2="19.771">
		<stop  offset="0" style="stop-color:#FF9CC5"/>
		<stop  offset="1" style="stop-color:#EC478B"/>
	</linearGradient>
	<circle class="st5" cx="37" cy="19.8" r="6.2"/>
	<linearGradient id="SVGID_6_" gradientUnits="userSpaceOnUse" x1="71.672" y1="15.9714" x2="86.4356" y2="15.9714">
		<stop  offset="0" style="stop-color:#99E3A7"/>
		<stop  offset="1" style="stop-color:#07C0B1"/>
	</linearGradient>
	<circle class="st6" cx="79.1" cy="16" r="7.4"/>
</g>
</svg>
