<?xml version="1.0" encoding="utf-8"?>
<!-- Generator: Adobe Illustrator 25.2.3, SVG Export Plug-In . SVG Version: 6.00 Build 0)  -->
<svg version="1.1" id="图层_1" xmlns="http://www.w3.org/2000/svg" xmlns:xlink="http://www.w3.org/1999/xlink" x="0px" y="0px"
	 viewBox="0 0 92 92" style="enable-background:new 0 0 92 92;" xml:space="preserve">
<style type="text/css">
	.st0{opacity:0;fill:#D3D3D3;}
	.st1{fill:url(#路径_441_1_);}
	.st2{opacity:0.3;fill:#FFFFFF;enable-background:new    ;}
	.st3{fill:url(#椭圆_165_1_);}
	.st4{fill:#FFFFFF;}
</style>
<rect x="0" class="st0" width="92" height="92"/>
<g>
	
		<linearGradient id="路径_441_1_" gradientUnits="userSpaceOnUse" x1="-322.6059" y1="191.1198" x2="-323.2039" y2="191.9598" gradientTransform="matrix(82.2449 0 0 -44.4252 26602.3359 8545.6904)">
		<stop  offset="0" style="stop-color:#5C62E6"/>
		<stop  offset="0" style="stop-color:#5D62E6"/>
		<stop  offset="1" style="stop-color:#AF7FF6"/>
	</linearGradient>
	<path id="路径_441" class="st1" d="M22,58.8c1.7,0.4,3.4,0.6,5.1,0.6c1,0,1.9-0.1,2.9-0.2c1.8-0.2,3.6-0.7,5.3-1.4
		c3.5-0.7,7.1-1,10.7-1c3.6,0,7.2,0.3,10.7,1c1.7,0.7,3.5,1.1,5.3,1.4c1,0.1,1.9,0.2,2.9,0.2c1.7,0,3.5-0.2,5.2-0.6
		C82,56,89.4,44,86.5,32.1S71.7,12.8,59.7,15.6C54,17,49.1,20.6,46,25.6c-6.4-10.4-20.1-13.7-30.6-7.3C5,24.7,1.7,38.4,8.2,48.9
		C11.3,53.9,16.2,57.5,22,58.8z"/>
	<circle id="椭圆_163" class="st2" cx="65.5" cy="28" r="4"/>
	<circle id="椭圆_164" class="st2" cx="25.6" cy="27.5" r="4"/>
	
		<linearGradient id="椭圆_165_1_" gradientUnits="userSpaceOnUse" x1="-316.8349" y1="190.0118" x2="-315.9688" y2="189.5117" gradientTransform="matrix(35.14 0 0 -35.14 11199.0195 6734.0698)">
		<stop  offset="0" style="stop-color:#9FE9AD"/>
		<stop  offset="1" style="stop-color:#07C6B7"/>
	</linearGradient>
	<circle id="椭圆_165" class="st3" cx="69.5" cy="59.4" r="17.6"/>
	<path id="路径_442" class="st4" d="M78.4,67.1L76,69.4l-1.8-1.8l2.4-2.4c2.3-2.3,2.2-6-0.1-8.3c-2.3-2.2-5.9-2.2-8.2,0L66,59.4
		l-1.8-1.8l2.4-2.4c3.3-3.2,8.6-3.2,11.8,0.1C81.6,58.7,81.6,63.9,78.4,67.1L78.4,67.1z"/>
	<path id="路径_443" class="st4" d="M60.7,51.8l2.3-2.3c0,0,0,0,0.1,0l1.7,1.7c0,0,0,0,0,0.1l-2.1,2.1c-2.2,2.1-2.5,5.6-0.6,8.1
		c2.1,2.5,5.7,2.8,8.2,0.8c0.1-0.1,0.3-0.2,0.4-0.4l2.3-2.3c0,0,0,0,0.1,0l1.7,1.7c0,0,0,0,0,0.1c0,0,0,0,0,0l-2.1,2.1
		c-3.1,3.2-8.2,3.5-11.6,0.6c-3.5-3-3.8-8.3-0.7-11.8C60.5,52,60.6,51.9,60.7,51.8L60.7,51.8z"/>
</g>
</svg>
