<?xml version="1.0" encoding="utf-8"?>
<!-- Generator: Adobe Illustrator 25.2.3, SVG Export Plug-In . SVG Version: 6.00 Build 0)  -->
<svg version="1.1" id="图层_1" xmlns="http://www.w3.org/2000/svg" xmlns:xlink="http://www.w3.org/1999/xlink" x="0px" y="0px"
	 viewBox="0 0 92 92" style="enable-background:new 0 0 92 92;" xml:space="preserve">
<style type="text/css">
	.st0{opacity:0;fill:#062EEC;}
	.st1{fill:url(#SVGID_1_);}
	.st2{fill:url(#SVGID_2_);}
	.st3{opacity:0.75;fill:#FFFFFF;enable-background:new    ;}
	.st4{opacity:0.3;fill:#FFFFFF;enable-background:new    ;}
	.st5{fill:#FFFFFF;}
	.st6{fill:url(#SVGID_3_);}
	.st7{fill:url(#SVGID_4_);}
	.st8{fill:url(#SVGID_5_);}
	.st9{fill:url(#SVGID_6_);}
	.st10{opacity:0.34;}
	.st11{fill:url(#SVGID_7_);}
</style>
<rect class="st0" width="92" height="92"/>
<g>
	<linearGradient id="SVGID_1_" gradientUnits="userSpaceOnUse" x1="20.9915" y1="46.7153" x2="68.6522" y2="46.7153">
		<stop  offset="2.000000e-03" style="stop-color:#5C62DE"/>
		<stop  offset="0.999" style="stop-color:#A77FEE"/>
	</linearGradient>
	<path class="st1" d="M62.7,39c2.1,0,4.1,0.3,6,0.8c-1.1-3.4-2.9-6.5-5.2-9.1c-0.5-0.6-1.1-1.2-1.7-1.7c-4.1-3.7-9.4-6-15.2-6.3
		c-0.4,0-0.8,0-1.1,0c-0.4,0-0.9,0-1.3,0C38.3,23,33,25.3,29,29c-0.6,0.5-1.2,1.1-1.7,1.7c-3.7,4-6,9.3-6.3,15.1c0,0.4,0,0.8,0,1.2
		c0,0.4,0,0.8,0,1.2c0.3,5.8,2.6,11.1,6.2,15.1c0.5,0.6,1.1,1.2,1.7,1.7c3,2.7,6.7,4.7,10.8,5.7c-0.8-2.4-1.2-5-1.2-7.6
		C38.5,49.8,49.3,39,62.7,39z"/>
	<path d="M41.7,63.1c0,2.9,0.6,5.7,1.7,8.2c0.7,0.1,1.3,0.1,2,0.1c13.5,0,24.4-10.9,24.4-24.4c0-1.3-0.1-2.5-0.3-3.7
		c-2.1-0.7-4.4-1.2-6.8-1.2C51.1,42.2,41.7,51.6,41.7,63.1z"/>
	<linearGradient id="SVGID_2_" gradientUnits="userSpaceOnUse" x1="41.6859" y1="63.144" x2="83.6462" y2="63.144">
		<stop  offset="0" style="stop-color:#99E3A7"/>
		<stop  offset="1" style="stop-color:#07C0B1"/>
	</linearGradient>
	<path class="st2" d="M69.5,43.3c-2.1-0.7-4.4-1.2-6.8-1.2c-11.6,0-21,9.4-21,21c0,2.9,0.6,5.7,1.7,8.2c3.2,7.5,10.6,12.8,19.3,12.8
		c11.6,0,21-9.4,21-21C83.6,53.9,77.7,46.2,69.5,43.3z"/>
	<path class="st3" d="M34.4,37.4c-1.7,0-3.4,0.9-4.3,2.4c-0.9,1.5-0.9,3.4,0,4.9c0.9,1.5,2.5,2.4,4.3,2.4c2.6,0,4.8-2.2,4.8-4.8
		C39.2,39.6,37.1,37.4,34.4,37.4L34.4,37.4z"/>
	<path class="st4" d="M50.2,32.8c1.3,0,2.5,0.7,3.2,1.8c0.7,1.1,0.7,2.5,0,3.7c-0.7,1.1-1.9,1.8-3.2,1.8c-2,0-3.6-1.7-3.6-3.6
		S48.2,32.9,50.2,32.8L50.2,32.8z"/>
	<path d="M50.2,35"/>
	<path class="st5" d="M50.2,73l7.1-7.1l4.2,4.2L71.6,60v4.5h3.7V53.3H64.2V57h5.1l-7.8,7.8l-1.6-1.6v0l-2.6-2.6l0,0l-2.6,2.6l0,0
		l-7.1,7.1L50.2,73z M50.2,73"/>
	<linearGradient id="SVGID_3_" gradientUnits="userSpaceOnUse" x1="10.2187" y1="23.8506" x2="27.8079" y2="23.8506">
		<stop  offset="0" style="stop-color:#FF9CC5"/>
		<stop  offset="1" style="stop-color:#EC478B"/>
	</linearGradient>
	<path class="st6" d="M29,29l-2.6-2.6l0.2-0.3c1.7-2.8,0.8-6.5-2-8.3c-2.8-1.8-6.5-0.9-8.3,1.8C15.1,21.6,15,24,16,25.9
		c1.1,2,3.1,3.2,5.3,3.2c1.2,0,2.3-0.3,3.3-1l2.6,2.6C27.8,30.1,28.4,29.6,29,29z"/>
	<linearGradient id="SVGID_4_" gradientUnits="userSpaceOnUse" x1="10.2187" y1="16.7223" x2="75.3025" y2="16.7223">
		<stop  offset="2.000000e-03" style="stop-color:#5C62DE"/>
		<stop  offset="0.999" style="stop-color:#A77FEE"/>
	</linearGradient>
	<path class="st7" d="M46.5,22.7v-2.4l0.2-0.1c2.5-0.8,3.9-3.3,3.2-5.8c-0.6-2.3-2.7-3.8-5.1-3.6c-2.4,0.2-4.2,2.1-4.4,4.4
		c-0.2,2.4,1.3,4.5,3.6,5.1v2.4c0.4,0,0.9,0,1.3,0C45.8,22.7,46.2,22.7,46.5,22.7z"/>
	<linearGradient id="SVGID_5_" gradientUnits="userSpaceOnUse" x1="61.7326" y1="23.8489" x2="75.3026" y2="23.8489">
		<stop  offset="0" style="stop-color:#FF816C"/>
		<stop  offset="1" style="stop-color:#FFAC9F"/>
	</linearGradient>
	<path class="st8" d="M72.1,17.8c-2.4-1.3-5.5-0.8-7.3,1.3c-1.9,2-2.1,5.1-0.6,7.4l-2.5,2.5c0.6,0.5,1.2,1.1,1.7,1.7l2.5-2.5
		l0.3,0.2c0.9,0.5,2,0.8,3,0.8c2.8,0,5.2-1.9,5.8-4.6C75.8,21.9,74.6,19.1,72.1,17.8z"/>
	<linearGradient id="SVGID_6_" gradientUnits="userSpaceOnUse" x1="12.0324" y1="70.2342" x2="28.5779" y2="70.2342">
		<stop  offset="0.1428" style="stop-color:#99E3A7"/>
		<stop  offset="1" style="stop-color:#07C0B1"/>
	</linearGradient>
	<path class="st9" d="M27.3,63.4L24.7,66l-0.3-0.2c-2.6-1.6-6-0.9-7.9,1.5c-1.9,2.4-1.6,5.8,0.5,8c1.1,1.1,2.7,1.8,4.3,1.8
		c1.6,0,3.1-0.6,4.3-1.8l0.2-0.2c1.8-2,2.1-5.1,0.6-7.4l2.6-2.6C28.4,64.6,27.8,64,27.3,63.4z"/>
	<polygon points="42.2,74.8 42.2,74.8 42.2,74.8 	"/>
	<polygon class="st10" points="42.2,74.8 42.2,74.8 42.2,74.8 	"/>
	<linearGradient id="SVGID_7_" gradientUnits="userSpaceOnUse" x1="10.2187" y1="47.0585" x2="75.3025" y2="47.0585">
		<stop  offset="2.000000e-03" style="stop-color:#5C62DE"/>
		<stop  offset="0.999" style="stop-color:#A77FEE"/>
	</linearGradient>
	<path class="st11" d="M21,45.8h-2.5l-0.1-0.2c-0.8-2.2-3.1-3.3-5.3-2.6c-2.2,0.7-3.4,3-2.7,5.2c0.5,1.8,2.2,3,4.1,3s3.5-1.2,4.1-3
		H21c0-0.4,0-0.8,0-1.2C21,46.7,21,46.2,21,45.8z"/>
	<path class="st4" d="M30.6,52.7c-0.3,0.1-0.6,0.3-0.9,0.6c-0.5,0.5-0.8,1.2-0.8,1.9c0,0.4,0.1,0.7,0.2,1c0.1,0.3,0.3,0.6,0.6,0.9
		c0.3,0.2,0.6,0.4,0.9,0.6c0.3,0.1,0.7,0.2,1,0.2c0.7,0,1.4-0.3,1.9-0.8c0.2-0.3,0.4-0.6,0.6-0.9c0.1-0.3,0.2-0.7,0.2-1
		c0-0.7-0.3-1.4-0.8-1.9C32.7,52.5,31.6,52.3,30.6,52.7L30.6,52.7z"/>
</g>
</svg>
