<?xml version="1.0" encoding="utf-8"?>
<!-- Generator: Adobe Illustrator 25.2.3, SVG Export Plug-In . SVG Version: 6.00 Build 0)  -->
<svg version="1.1" id="图层_1" xmlns="http://www.w3.org/2000/svg" xmlns:xlink="http://www.w3.org/1999/xlink" x="0px" y="0px"
	 viewBox="0 0 92 92" style="enable-background:new 0 0 92 92;" xml:space="preserve">
<style type="text/css">
	.st0{opacity:0;fill:#FFFFFF;}
	.st1{fill:url(#路径_445_1_);}
	.st2{opacity:0.75;fill:#FFFFFF;enable-background:new    ;}
	.st3{opacity:0.3;fill:#FFFFFF;enable-background:new    ;}
	.st4{fill:url(#椭圆_176_1_);}
	.st5{fill:#FFFFFF;}
</style>
<rect x="0" class="st0" width="92" height="92"/>
<g id="组_1231" transform="translate(-333.66 -336.72)">
	
		<linearGradient id="路径_445_1_" gradientUnits="userSpaceOnUse" x1="12.0039" y1="530.7546" x2="11.2909" y2="531.5096" gradientTransform="matrix(68.99 0 0 -82.55 -430.8236 44227.3477)">
		<stop  offset="0" style="stop-color:#5C62E6"/>
		<stop  offset="1" style="stop-color:#AF7FF6"/>
	</linearGradient>
	<path id="路径_445" class="st1" d="M399.7,424h-53.5c-4.3,0-7.7-3.5-7.7-7.7v-67.1c0-4.3,3.5-7.7,7.7-7.7h53.5
		c4.3,0,7.7,3.5,7.7,7.7v67.1C407.5,420.5,404,424,399.7,424C399.7,424,399.7,424,399.7,424z"/>
	<rect id="矩形_508" x="347.9" y="350.4" class="st2" width="50.3" height="17.7"/>
	<path id="路径_446" class="st3" d="M355.8,387.4h-4.1c-1.6,0-2.9-1.3-2.9-2.9c0,0,0,0,0,0v-4.1c0-1.6,1.3-2.9,2.9-3c0,0,0,0,0,0
		h4.1c1.6,0,2.9,1.3,2.9,2.9c0,0,0,0,0,0v4.1C358.8,386.1,357.4,387.4,355.8,387.4C355.8,387.4,355.8,387.4,355.8,387.4z"/>
	<path id="路径_447" class="st3" d="M375,387.4h-4.1c-1.6,0-2.9-1.3-2.9-2.9c0,0,0,0,0,0v-4.1c0-1.6,1.3-2.9,2.9-3c0,0,0,0,0,0
		h4.1c1.6,0,2.9,1.3,2.9,2.9c0,0,0,0,0,0v4.1C378,386.1,376.6,387.4,375,387.4C375,387.4,375,387.4,375,387.4z"/>
	<path id="路径_448" class="st3" d="M395.1,387.4H391c-1.6,0-2.9-1.3-3-2.9c0,0,0,0,0,0v-4.1c0-1.6,1.3-2.9,2.9-3c0,0,0,0,0,0h4.1
		c1.6,0,2.9,1.3,3,2.9c0,0,0,0,0,0v4.1C398.1,386.1,396.8,387.4,395.1,387.4C395.1,387.4,395.1,387.4,395.1,387.4z"/>
	<path id="路径_449" class="st3" d="M355.8,405.4h-4.1c-1.6,0-2.9-1.3-2.9-2.9c0,0,0,0,0,0v-4.1c0-1.6,1.3-2.9,2.9-3c0,0,0,0,0,0
		h4.1c1.6,0,2.9,1.3,2.9,2.9c0,0,0,0,0,0v4.1C358.8,404.1,357.4,405.4,355.8,405.4C355.8,405.4,355.8,405.4,355.8,405.4z"/>
	<path id="路径_450" class="st3" d="M375,405.4h-4.1c-1.6,0-2.9-1.3-2.9-2.9c0,0,0,0,0,0v-4.1c0-1.6,1.3-2.9,2.9-3c0,0,0,0,0,0
		h4.1c1.6,0,2.9,1.3,2.9,2.9c0,0,0,0,0,0v4.1C378,404.1,376.6,405.4,375,405.4C375,405.4,375,405.4,375,405.4z"/>
	
		<linearGradient id="椭圆_176_1_" gradientUnits="userSpaceOnUse" x1="15.6308" y1="528.3394" x2="15.6308" y2="527.3394" gradientTransform="matrix(40 0 0 -40 -224.4002 21517.3008)">
		<stop  offset="0" style="stop-color:#9FE9AD"/>
		<stop  offset="1" style="stop-color:#07C6B7"/>
	</linearGradient>
	<circle id="椭圆_176" class="st4" cx="400.8" cy="403.7" r="20"/>
	<g id="组_1230" transform="translate(601.55 42.09)">
		<path id="路径_451" class="st5" d="M-208,353.6l-3.3,16.1h-2l-3.3-16.1h2.4l1.8,11.3h0.1l1.9-11.3H-208z"/>
		<path id="路径_452" class="st5" d="M-206.7,369.8v-16.1h2.2l3.5,9.7h0v-9.7h2.3v16.1h-2.2l-3.5-9.7h-0.1v9.7H-206.7z"/>
		<path id="路径_453" class="st5" d="M-196.5,369.8v-16.1h3.5c0.6,0,1.1,0.1,1.7,0.2c0.5,0.2,1,0.5,1.3,0.9
			c0.4,0.4,0.7,0.9,0.8,1.5c0.2,0.8,0.2,1.5,0.2,2.3c0,0.6,0,1.2-0.1,1.8c-0.1,0.5-0.3,1-0.5,1.4c-0.3,0.5-0.7,0.9-1.3,1.2
			c-0.6,0.3-1.4,0.5-2.1,0.4h-1.2v6.3L-196.5,369.8L-196.5,369.8z M-194.2,355.8v5.5h1.1c0.4,0,0.7-0.1,1.1-0.2
			c0.2-0.1,0.4-0.3,0.6-0.6c0.1-0.3,0.2-0.5,0.2-0.8c0-0.3,0-0.7,0-1.1c0-0.4,0-0.7,0-1.1c0-0.3-0.1-0.6-0.2-0.9
			c-0.1-0.2-0.3-0.5-0.5-0.6c-0.3-0.2-0.7-0.2-1-0.2L-194.2,355.8L-194.2,355.8z"/>
		<path id="路径_454" class="st5" d="M-187.2,369.8v-16.1h2.3v16.1H-187.2z"/>
	</g>
</g>
</svg>
